<?xml version="1.0" encoding="UTF-8"?>
<svg version="1.1" xmlns="http://www.w3.org/2000/svg" width="1024" height="1024">
<path d="M0 0 C337.92 0 675.84 0 1024 0 C1024 337.92 1024 675.84 1024 1024 C686.08 1024 348.16 1024 0 1024 C0 686.08 0 348.16 0 0 Z " fill="#FEFEFE" transform="translate(0,0)"/>
<path d="M0 0 C2.11363219 0.00103927 4.22726632 -0.00000411 6.34089661 -0.00302124 C10.75124306 -0.00284266 15.1608517 0.01784026 19.57104492 0.05419922 C25.20652874 0.09965571 30.84094082 0.10063768 36.47655773 0.08716393 C40.83394294 0.08046358 45.19108642 0.0937819 49.54842567 0.11342239 C51.625916 0.12108464 53.70343328 0.12344026 55.78093529 0.1202507 C58.68805084 0.11950403 61.59382041 0.14489129 64.50073242 0.17724609 C65.3471933 0.17229126 66.19365417 0.16733643 67.06576538 0.16223145 C75.9281183 0.31865632 82.86035991 3.74585788 89.2890625 9.73828125 C97.91311501 18.97963436 99.46759626 27.39164976 99.26953125 39.6640625 C99.26050781 40.72947266 99.25148438 41.79488281 99.2421875 42.89257812 C99.21876539 45.50414284 99.18596577 48.11523187 99.14453125 50.7265625 C100.03687469 50.71768005 100.92921814 50.70879761 101.84860229 50.699646 C110.29250079 50.6192196 118.73626908 50.55845622 127.18046379 50.51931381 C131.52086718 50.49851315 135.86095186 50.4703347 140.20117188 50.42480469 C144.39630352 50.38107629 148.59113021 50.35736894 152.78647232 50.34705353 C154.38033976 50.33971025 155.97419208 50.32537143 157.56792831 50.30364227 C168.07621027 50.1661781 176.38319588 50.95953553 185.39453125 56.8515625 C191.50494818 63.23972566 195.30256677 70.02925942 195.20703125 78.9140625 C195.19800781 80.00074219 195.18898438 81.08742188 195.1796875 82.20703125 C195.16808594 83.03847656 195.15648437 83.86992187 195.14453125 84.7265625 C194.46277832 84.9217749 193.78102539 85.1169873 193.07861328 85.31811523 C179.93307698 89.10077456 166.8510083 93.02347385 153.89453125 97.4140625 C152.81961426 97.76976318 151.74469727 98.12546387 150.63720703 98.49194336 C143.6839696 100.889478 137.52167664 103.27586758 133.20703125 109.5390625 C131.40642247 114.94088884 131.30459778 119.41987901 133.58203125 124.6015625 C136.03922076 129.068382 139.48242703 132.61506261 142.94921875 136.31640625 C145.65719934 139.28940273 147.89980804 142.39568289 150.14453125 145.7265625 C147.11483559 150.39242607 143.728101 155.55193892 138.21440887 157.3592186 C132.73711665 158.28724718 127.19687831 157.98937975 121.66796875 157.80078125 C119.88869057 157.78023134 118.10934959 157.76458909 116.32998657 157.75361633 C111.6758442 157.71187368 107.0255571 157.60406796 102.3729248 157.48187256 C97.61373037 157.3687717 92.85390469 157.31898596 88.09375 157.26367188 C78.77566172 157.14615884 69.46041862 156.95875368 60.14453125 156.7265625 C60.14453125 160.6865625 60.14453125 164.6465625 60.14453125 168.7265625 C82.58453125 168.7265625 105.02453125 168.7265625 128.14453125 168.7265625 C124.33325739 173.17304867 120.5862705 177.47857021 116.45703125 181.6015625 C115.94229248 182.1162207 115.42755371 182.63087891 114.8972168 183.16113281 C110.81440082 187.18463275 106.51928497 190.8583347 102.0078125 194.3984375 C99.56379803 196.38565799 97.23186095 198.43359675 94.89453125 200.54296875 C90.37784718 204.57807911 85.68462104 208.29304 80.83203125 211.9140625 C79.53833618 212.87953003 79.53833618 212.87953003 78.21850586 213.86450195 C27.89994667 251.0179768 -55.97633032 296.36105228 -120.85546875 289.7265625 C-128.12517078 287.56884234 -133.83520112 283.15685794 -137.85546875 276.7265625 C-140.73011181 270.34309617 -141.27472973 265.13249293 -141.19604492 258.1796875 C-141.196483 257.15439438 -141.19692108 256.12910126 -141.19737244 255.07273865 C-141.19529397 251.70714821 -141.17200702 248.34206518 -141.1484375 244.9765625 C-141.14283821 242.63387321 -141.13856968 240.29118039 -141.13557434 237.94848633 C-141.12415189 231.79996951 -141.09470689 225.65166725 -141.0614624 219.50323486 C-141.03070555 213.22223818 -141.017057 206.94120663 -141.00195312 200.66015625 C-140.96983485 188.34886437 -140.91866983 176.03773132 -140.85546875 163.7265625 C-139.99209743 164.15018759 -139.99209743 164.15018759 -139.11128426 164.58237076 C-132.03028077 167.76769897 -125.94522724 168.30664954 -118.24560547 168.27246094 C-117.02494888 168.28279861 -115.8042923 168.29313629 -114.54664612 168.30378723 C-111.23095691 168.32806506 -107.91611074 168.33505691 -104.60039282 168.33406734 C-101.12365867 168.33721567 -97.64708862 168.36287337 -94.17044067 168.38604736 C-87.60111383 168.42646502 -81.03188589 168.44691436 -74.46245396 168.46002126 C-66.97739111 168.47593983 -59.49249542 168.51437561 -52.00752997 168.55461454 C-36.62355527 168.63681842 -21.23962403 168.69023343 -5.85546875 168.7265625 C-5.85546875 164.7665625 -5.85546875 160.8065625 -5.85546875 156.7265625 C-8.06508301 156.73988617 -8.06508301 156.73988617 -10.31933594 156.753479 C-24.20883473 156.8346029 -38.0983151 156.89478696 -51.98799133 156.93381119 C-59.12864722 156.95440811 -66.26912587 156.98247335 -73.40966797 157.02832031 C-79.63572627 157.06827653 -85.86165616 157.09401618 -92.08783913 157.10291648 C-95.38251332 157.10811654 -98.67673609 157.12239775 -101.97131348 157.14948273 C-105.65557537 157.17856384 -109.3390791 157.18251634 -113.0234375 157.18066406 C-114.10741318 157.19504517 -115.19138885 157.20942627 -116.30821228 157.22424316 C-123.74213334 157.18386252 -129.41528304 156.12758101 -134.9140625 150.69140625 C-135.36910156 150.02238281 -135.82414062 149.35335937 -136.29296875 148.6640625 C-136.76605469 147.99246094 -137.23914063 147.32085937 -137.7265625 146.62890625 C-140.02961987 142.74797566 -139.99710185 139.41643173 -140.0324707 134.99536133 C-140.0390419 134.31527008 -140.0456131 133.63517883 -140.05238342 132.93447876 C-140.07208882 130.68418256 -140.08377472 128.43395312 -140.09375 126.18359375 C-140.09782553 125.41301825 -140.10190105 124.64244274 -140.10610008 123.84851646 C-140.12695217 119.76742192 -140.14125584 115.68636088 -140.15063477 111.60522461 C-140.16167881 107.40321914 -140.19605745 103.2017462 -140.23580647 98.99992847 C-140.26203798 95.75783855 -140.27033251 92.51587406 -140.27391624 89.27368736 C-140.2787678 87.72562768 -140.2903408 86.17757307 -140.30895424 84.62961769 C-140.4769646 69.72733508 -140.4769646 69.72733508 -135.85546875 62.7265625 C-135.27796875 61.8396875 -134.70046875 60.9528125 -134.10546875 60.0390625 C-128.77079816 54.55620661 -122.08828795 51.02122334 -114.40054321 50.48605347 C-113.13479462 50.49049469 -111.86904602 50.49493591 -110.56494141 50.49951172 C-109.51024155 50.49907364 -109.51024155 50.49907364 -108.43423462 50.49862671 C-106.12920433 50.50001088 -103.82450449 50.51552853 -101.51953125 50.53125 C-99.91385067 50.53498338 -98.30816781 50.53782882 -96.70248413 50.53982544 C-92.49059686 50.54743629 -88.27884904 50.56706271 -84.0670166 50.5892334 C-79.76344692 50.6097469 -75.45985455 50.6188389 -71.15625 50.62890625 C-62.72259249 50.65031116 -54.289048 50.68441611 -45.85546875 50.7265625 C-45.88688965 49.66912842 -45.88688965 49.66912842 -45.91894531 48.59033203 C-46.00295594 45.34422519 -46.05439572 42.09834811 -46.10546875 38.8515625 C-46.13898438 37.74296875 -46.1725 36.634375 -46.20703125 35.4921875 C-46.31568307 26.25678248 -44.63114095 18.07798105 -38.35546875 10.9765625 C-26.94129588 -0.41310643 -15.20722796 -0.14836797 0 0 Z " fill="#0147CB" transform="translate(465.85546875,228.2734375)"/>
<path d="M0 0 C2.1652832 1.53979492 2.1652832 1.53979492 4 4 C4.34872461 6.71657037 4.4587094 8.97417417 4.35546875 11.67578125 C4.34009567 12.4270076 4.3247226 13.17823395 4.30888367 13.95222473 C4.08277453 22.0743293 3.24260143 30.12120694 2.3125 38.1875 C2.13278127 39.79670852 1.95384839 41.40600496 1.77563477 43.01538086 C1.49122432 45.58105356 1.20586289 48.14659379 0.91679382 50.71174622 C0.25746267 56.58146368 -0.35924926 62.45442927 -0.95152283 68.33128357 C-1.37639184 72.54434814 -1.81082999 76.75640304 -2.2460022 80.96841431 C-2.45613581 83.0226826 -2.6623662 85.0773541 -2.86459351 87.13241577 C-3.14966284 90.01796107 -3.45007365 92.90153472 -3.75390625 95.78515625 C-3.83510712 96.64495087 -3.91630798 97.50474548 -3.99996948 98.39059448 C-4.54008014 103.34701061 -5.31795896 107.31795896 -9 111 C-13.92465437 111.4910624 -16.24844835 110.6242892 -20.125 107.625 C-21.06214844 106.90570313 -21.99929688 106.18640625 -22.96484375 105.4453125 C-28.03298234 101.36210175 -33.04511809 97.21986452 -38 93 C-41.45655497 94.54673573 -43.17963029 96.3373376 -45.53515625 99.30859375 C-47.71428836 101.82476496 -50.24182818 103.87109549 -52.7734375 106.0234375 C-55.23446569 108.20813972 -57.5150401 110.51919191 -59.8125 112.875 C-64.90125307 118.0102257 -70.32981495 122.52511088 -76 127 C-77.08263831 127.87294557 -78.16464753 128.7466718 -79.24609375 129.62109375 C-133.13792328 172.93131639 -198.85679339 200.51739776 -267 211 C-267.75780762 211.12004395 -268.51561523 211.24008789 -269.29638672 211.36376953 C-279.63583093 212.94882027 -289.92234317 213.19617977 -300.375 213.25 C-301.65455566 213.2593457 -302.93411133 213.26869141 -304.25244141 213.27832031 C-305.45562012 213.27413086 -306.65879883 213.26994141 -307.8984375 213.265625 C-309.51758057 213.26224121 -309.51758057 213.26224121 -311.16943359 213.25878906 C-313.96608899 213.00310037 -315.62220491 212.44460914 -318 211 C-316.35523682 210.51756836 -316.35523682 210.51756836 -314.67724609 210.02539062 C-287.47589904 202.03061861 -260.90603646 193.62224591 -235 182 C-234.19997559 181.64325195 -233.39995117 181.28650391 -232.57568359 180.91894531 C-200.51927203 166.52089401 -170.81289867 146.64904588 -144 124 C-143.50317215 123.58552109 -143.0063443 123.17104218 -142.49446106 122.7440033 C-133.85880737 115.53912564 -125.70122407 107.99342339 -117.79272461 99.99853516 C-116.04408776 98.2313929 -114.2873301 96.47263385 -112.52929688 94.71484375 C-107.37477089 89.54403368 -102.29951531 84.35974295 -97.55883789 78.80175781 C-94.12502689 74.83284236 -90.44258564 71.07996443 -86.81054688 67.29296875 C-86.21693359 66.66519531 -85.62332031 66.03742188 -85.01171875 65.390625 C-84.48022217 64.83407227 -83.94872559 64.27751953 -83.40112305 63.70410156 C-81.9192982 61.90184726 -80.96190859 60.11880257 -80 58 C-81.60063543 56.51701283 -83.20577597 55.03888837 -84.8125 53.5625 C-85.54605713 52.88622559 -85.54605713 52.88622559 -86.29443359 52.19628906 C-90.61708061 48.25306366 -95.18365845 44.6908824 -99.8828125 41.203125 C-102.54965175 38.42803766 -103.07027961 36.83525846 -103 33 C-100.25700352 29.61208832 -97.7632998 28.27082684 -93.64453125 26.9921875 C-92.02417969 26.47978516 -92.02417969 26.47978516 -90.37109375 25.95703125 C-89.19675781 25.59996094 -88.02242187 25.24289062 -86.8125 24.875 C-85.58015625 24.48957031 -84.3478125 24.10414063 -83.078125 23.70703125 C-79.05795647 22.45190776 -75.02987167 21.22355601 -71 20 C-70.32386658 19.79443481 -69.64773315 19.58886963 -68.95111084 19.3770752 C-62.75272171 17.49333257 -56.55227684 15.61645208 -50.34814453 13.75170898 C-39.73235824 10.55604977 -29.1709477 7.21037842 -18.62890625 3.77929688 C-17.54867188 3.42802734 -16.4684375 3.07675781 -15.35546875 2.71484375 C-14.41340576 2.40667725 -13.47134277 2.09851074 -12.50073242 1.78100586 C-8.20634335 0.43982157 -4.53870991 -0.47278228 0 0 Z " fill="#0526B4" transform="translate(715,311)"/>
<path d="M0 0 C13.36736221 10.26958867 22.44233984 23.60205104 25.53125 40.296875 C27.81131996 58.30942771 25.06854641 76.0985504 13.82421875 90.85546875 C11.63914981 93.34999478 9.37735926 95.68914029 7 98 C6.38640625 98.63421875 5.7728125 99.2684375 5.140625 99.921875 C-7.25356783 111.89233474 -25.44354964 116.6871009 -42.27929688 116.47070312 C-60.23293907 115.74389763 -76.4023838 108.93747995 -89 96 C-89.63421875 95.39800781 -90.2684375 94.79601562 -90.921875 94.17578125 C-101.93931154 82.93897098 -105.88450495 66.30442603 -106.4375 51.0625 C-105.96385065 33.57694498 -99.20843079 18.0758156 -86.88671875 5.66015625 C-63.75576614 -15.65537653 -25.83499266 -17.23465958 0 0 Z " fill="#0529B2" transform="translate(531,576)"/>
<path d="M0 0 C70.08012821 0 70.08012821 0 83.2421875 12.078125 C89.20696636 18.59961656 91.52392238 27.63487463 91.3125 36.31640625 C90.36226469 44.47655198 87.04374481 51.43975478 81 57 C79.68036291 58.01800576 78.34990354 59.02248365 77 60 C77.56847656 60.268125 78.13695312 60.53625 78.72265625 60.8125 C87.38061467 65.2065223 92.70568557 70.77398746 96 80 C97.17741768 90.4058265 96.51105924 99.79230344 90.234375 108.4296875 C82.22395925 118.04849381 73.15471141 121.97421476 61 124 C40.87 124 20.74 124 0 124 C0 83.08 0 42.16 0 0 Z " fill="#0825B0" transform="translate(574,566)"/>
<path d="M0 0 C56.08088235 0 56.08088235 0 67 9 C74.12390493 16.12390493 76.39609505 23.08267055 76.5 32.9375 C76.41926999 39.93386238 75.71710076 45.91003303 72 52 C71.61070312 52.64066406 71.22140625 53.28132812 70.8203125 53.94140625 C66.13221782 60.36326375 57.72336374 64.50957049 50 66 C47.75646063 66.08173345 45.51063108 66.10750277 43.265625 66.09765625 C42.09805664 66.09515869 40.93048828 66.09266113 39.72753906 66.09008789 C38.24995117 66.08098389 36.77236328 66.07187988 35.25 66.0625 C30.5475 66.041875 25.845 66.02125 21 66 C21 76.89 21 87.78 21 99 C14.07 99 7.14 99 0 99 C0 66.33 0 33.66 0 0 Z " fill="#0329B1" transform="translate(332,715)"/>
<path d="M0 0 C9.09638435 6.21344922 15.27714015 15.17618941 17.6640625 26.015625 C19.01749975 38.0391838 18.43440099 50.16765434 11.25 60.375 C2.89177561 70.32926723 -6.41626103 75.83189503 -19.3359375 77.2578125 C-31.26706741 77.83699356 -42.19040412 73.14793474 -50.9296875 65.2578125 C-59.56509917 56.32590601 -62.39015254 44.86269344 -62.27734375 32.8046875 C-61.4223812 21.07604632 -56.71095148 11.15054912 -48.125 3.1875 C-35.17567167 -7.50437838 -14.27557023 -9.0747253 0 0 Z " fill="#FBFCFD" transform="translate(513,593)"/>
<path d="M0 0 C0.1398858 8.00679697 0.24606311 16.01307161 0.31087303 24.02079391 C0.34200107 27.74038026 0.38412454 31.45912217 0.45263672 35.17822266 C0.51850499 38.77689993 0.5538448 42.37477244 0.56926346 45.97400665 C0.58551732 47.99463996 0.63224581 50.01495568 0.67977905 52.03509521 C0.6829644 60.89419236 -0.93087958 67.62705156 -6 75 C-8.48984367 77.43737689 -10.97804918 79.27663849 -14 81 C-15.03125 81.598125 -16.0625 82.19625 -17.125 82.8125 C-23.62214821 85.49610469 -30.35277533 85.14822823 -37.26611328 85.14526367 C-38.95491104 85.15030159 -38.95491104 85.15030159 -40.67782593 85.15544128 C-44.39199939 85.16492541 -48.10612769 85.16689282 -51.8203125 85.16796875 C-54.40290343 85.17118198 -56.98549417 85.17454611 -59.56808472 85.17805481 C-64.97654724 85.18403892 -70.38499185 85.1859382 -75.79345703 85.18530273 C-82.04308421 85.18470098 -88.29262534 85.19527634 -94.54223073 85.2110464 C-100.56183247 85.22569392 -106.58138741 85.22929099 -112.60100937 85.22869301 C-115.1599246 85.22987501 -117.71884043 85.23430905 -120.27774429 85.24202538 C-123.84946161 85.2517913 -127.42095508 85.24896108 -130.99267578 85.24291992 C-132.05355408 85.24853943 -133.11443237 85.25415894 -134.2074585 85.25994873 C-135.18032806 85.25575424 -136.15319763 85.25155975 -137.1555481 85.24723816 C-137.9994919 85.24778293 -138.84343571 85.24832769 -139.71295357 85.24888897 C-142.20778986 84.97738717 -143.84283677 84.25135676 -146 83 C-145.22736816 82.72961914 -144.45473633 82.45923828 -143.65869141 82.18066406 C-125.29367726 75.71101638 -107.4856378 68.62305426 -90 60 C-88.50581543 59.26330078 -88.50581543 59.26330078 -86.98144531 58.51171875 C-57.39533565 43.78181982 -30.21100735 25.45921781 -5.3527832 3.70703125 C-1.10041906 0 -1.10041906 0 0 0 Z " fill="#0623B3" transform="translate(661,435)"/>
<path d="M0 0 C6.93 0 13.86 0 21 0 C21.01401855 3.02704102 21.01401855 3.02704102 21.02832031 6.11523438 C21.0621842 12.80493963 21.11778498 19.49433946 21.18390274 26.18379974 C21.22330485 30.23713225 21.25552863 34.29024989 21.27099609 38.34375 C21.28621104 42.26032022 21.32074091 46.17629943 21.36830902 50.09260559 C21.38307328 51.58196354 21.39103816 53.0714059 21.39188385 54.56083679 C21.40098409 62.55625665 21.436682 69.16167196 26 76 C31.65344522 80.99752064 38.64960445 81.73106801 45.94140625 81.421875 C51.76067148 80.61921773 55.46369245 78.65448505 59.4375 74.375 C62.04107725 70.41756257 62.14558403 68.10915903 62.20532227 63.34716797 C62.21522186 62.66412598 62.22512146 61.98108398 62.23532104 61.27734375 C62.26695309 59.01566047 62.29170011 56.75395618 62.31640625 54.4921875 C62.33697431 52.92562305 62.35797075 51.35906417 62.37937927 49.79251099 C62.43461522 45.66616318 62.48401775 41.53976517 62.53222656 37.41333008 C62.58243048 33.20389326 62.63812233 28.9945295 62.69335938 24.78515625 C62.8009596 16.52349755 62.90189337 8.2617769 63 0 C69.93 0 76.86 0 84 0 C84.06801368 9.08453444 84.12295256 18.16889734 84.15543652 27.25362968 C84.17103406 31.4728943 84.19216302 35.69197437 84.22631836 39.91113281 C84.25912437 43.9895418 84.27689737 48.06777424 84.28463173 52.14630508 C84.29013739 53.69549459 84.30088773 55.2446754 84.31719017 56.79378891 C84.45447455 70.39060612 83.12562326 80.58208813 73.37109375 90.6875 C63.66546222 99.69504667 51.34257272 101.5901699 38.59375 101.31640625 C29.06589632 100.84514031 20.64686686 97.61623953 13 92 C12.13375 91.443125 11.2675 90.88625 10.375 90.3125 C2.18856705 82.3414995 -0.074331 72.73575195 -0.22705078 61.64428711 C-0.23412654 58.77175958 -0.21599553 55.89978559 -0.1953125 53.02734375 C-0.19157565 51.49321173 -0.18873186 49.95907729 -0.18673706 48.42494202 C-0.17915342 44.41530602 -0.15955115 40.40581825 -0.1373291 36.39624023 C-0.11675622 32.29347742 -0.10771103 28.19069032 -0.09765625 24.08789062 C-0.07629948 16.05851863 -0.04116126 8.02929491 0 0 Z " fill="#0626B2" transform="translate(501,715)"/>
<path d="M0 0 C5.72678187 4.58617801 10.48005887 10.14669583 11.8828125 17.5078125 C11.8828125 19.8178125 11.8828125 22.1278125 11.8828125 24.5078125 C5.2828125 24.5078125 -1.3171875 24.5078125 -8.1171875 24.5078125 C-9.1071875 21.8678125 -10.0971875 19.2278125 -11.1171875 16.5078125 C-14.92832521 12.4960886 -18.36732366 12.22037928 -23.6796875 12.0703125 C-29.38684087 12.07703471 -32.86777988 13.25840488 -36.9296875 17.3203125 C-38.55388368 20.31225283 -38.59750915 22.14556093 -38.1171875 25.5078125 C-34.92776156 30.91633638 -31.02694957 31.9269519 -25.3046875 33.5078125 C-23.5961087 34.01479848 -21.88777825 34.52262213 -20.1796875 35.03125 C-19.32890625 35.27842773 -18.478125 35.52560547 -17.6015625 35.78027344 C-13.98318179 36.83990144 -10.39064341 37.96876097 -6.8046875 39.1328125 C-5.65355469 39.49632812 -4.50242187 39.85984375 -3.31640625 40.234375 C1.62959579 42.2031133 5.69977163 44.86150289 9.1328125 48.9453125 C9.61234375 49.50089844 10.091875 50.05648437 10.5859375 50.62890625 C15.19166401 57.30166061 14.80904622 65.72547853 13.8828125 73.5078125 C11.75545019 81.40796864 6.53040895 86.95336747 -0.1171875 91.5078125 C-11.17693825 97.25421914 -24.90787397 98.48600237 -36.96875 95.2578125 C-46.2288618 92.02519165 -53.63904853 87.35113001 -58.4921875 78.6328125 C-60.1171875 74.5078125 -60.1171875 74.5078125 -61.1171875 65.5078125 C-54.1871875 65.5078125 -47.2571875 65.5078125 -40.1171875 65.5078125 C-37.6421875 69.9628125 -37.6421875 69.9628125 -35.1171875 74.5078125 C-29.58318843 78.16025189 -23.55649433 78.23624087 -17.1171875 77.5078125 C-13.66286276 76.36735261 -13.66286276 76.36735261 -11.1171875 74.5078125 C-10.5190625 74.1159375 -9.9209375 73.7240625 -9.3046875 73.3203125 C-7.36687316 70.36259588 -6.50236127 67.00463671 -7.1171875 63.5078125 C-10.59173884 59.07476423 -14.1976501 57.42462427 -19.4921875 56.0078125 C-20.91825596 55.59082474 -22.34403056 55.17283087 -23.76953125 54.75390625 C-24.49124512 54.54749512 -25.21295898 54.34108398 -25.95654297 54.12841797 C-49.7216308 47.30233285 -49.7216308 47.30233285 -57.0234375 35.55859375 C-60.55546879 28.93603507 -60.2881961 19.66106263 -58.28125 12.54296875 C-54.19365989 3.64080102 -47.62226065 -1.36732385 -38.609375 -4.765625 C-25.64767341 -8.54442829 -11.3214656 -7.65459415 0 0 Z " fill="#0724AD" transform="translate(661.1171875,719.4921875)"/>
<path d="M0 0 C7.92 0 15.84 0 24 0 C24.0679122 12.21374798 24.12289483 24.42736951 24.15543652 36.64126396 C24.17105882 42.31332315 24.19223427 47.98524589 24.22631836 53.65722656 C24.25903437 59.13614357 24.27687883 64.61492973 24.28463173 70.09393692 C24.2901533 72.1790078 24.30093537 74.26407193 24.31719017 76.34908676 C24.33912715 79.28089341 24.34196015 82.2121668 24.34057617 85.14404297 C24.351362 85.99641037 24.36214783 86.84877777 24.3732605 87.72697449 C24.31789534 98.64283429 20.98312249 106.93260818 13.3359375 114.6875 C4.2003186 123.03053095 -6.1747241 125.52082914 -18.3359375 125.3125 C-30.06742565 124.31194664 -39.8931292 119.65964001 -47.875 111.0625 C-54.62370669 102.87656874 -55 95.53604502 -55 85 C-46.75 85 -38.5 85 -30 85 C-29.34 88.63 -28.68 92.26 -28 96 C-25.55801071 99.4411105 -25.55801071 99.4411105 -22 101 C-16.41758543 101.78026125 -10.28663978 102.33273848 -5.3125 99.25 C-2.70883392 96.71670327 -1.22813519 94.69511334 -0.73828697 91.05539322 C-0.72999084 90.03220301 -0.72999084 90.03220301 -0.7215271 88.98834229 C-0.71036362 88.2003273 -0.69920013 87.41231232 -0.68769836 86.60041809 C-0.68553818 85.74518051 -0.68337799 84.88994293 -0.68115234 84.00878906 C-0.66608391 82.64728981 -0.66608391 82.64728981 -0.65071106 81.25828552 C-0.61984179 78.2607384 -0.60283343 75.26328076 -0.5859375 72.265625 C-0.56722888 70.1862511 -0.54765569 68.10688481 -0.5272522 66.02752686 C-0.47589279 60.55642178 -0.43628737 55.08529208 -0.39910889 49.61407471 C-0.35909318 44.03041473 -0.30798972 38.44685752 -0.2578125 32.86328125 C-0.16100801 21.90891913 -0.07764235 10.95451472 0 0 Z " fill="#062AB2" transform="translate(384,567)"/>
<path d="M0 0 C6.93 0 13.86 0 21 0 C21 26.4 21 52.8 21 80 C35.52 80 50.04 80 65 80 C65 86.27 65 92.54 65 99 C43.55 99 22.1 99 0 99 C0 66.33 0 33.66 0 0 Z " fill="#0527B5" transform="translate(425,715)"/>
<path d="M0 0 C0.80049271 -0.00511093 1.60098541 -0.01022186 2.42573547 -0.01548767 C5.06986994 -0.02937844 7.71374355 -0.02842713 10.35791016 -0.02612305 C12.19870093 -0.0300106 14.03949082 -0.0343454 15.88027954 -0.03910828 C19.73873807 -0.04656963 23.5971051 -0.04628007 27.45556641 -0.04101562 C32.39414495 -0.03522478 37.332348 -0.05214308 42.27086449 -0.0753603 C46.07305075 -0.09011117 49.87514691 -0.09096743 53.67735672 -0.08785057 C55.49777596 -0.08836322 57.31820032 -0.09359044 59.13859177 -0.10366249 C61.68769271 -0.1160342 64.23606646 -0.10923076 66.78515625 -0.09765625 C67.90753944 -0.10912186 67.90753944 -0.10912186 69.05259705 -0.12081909 C73.78052759 -0.07350004 76.99834953 0.79445489 81.02197266 3.2746582 C87.70467911 10.64867911 85.02197266 17.36192939 85.02197266 28.2746582 C51.69197266 28.2746582 18.36197266 28.2746582 -15.97802734 28.2746582 C-15.97802734 8.2746582 -15.97802734 8.2746582 -11.97802734 2.2746582 C-8.45477509 -0.4569075 -4.27397287 -0.01407465 0 0 Z " fill="#F7F9FE" transform="translate(457.97802734375,250.725341796875)"/>
<path d="M0 0 C0.89867798 -0.00145523 1.79735596 -0.00291046 2.7232666 -0.00440979 C4.62299848 -0.00275005 6.52274369 0.00881965 8.42236328 0.02954102 C11.33293679 0.05848621 14.2416884 0.05015392 17.15234375 0.03710938 C18.9974047 0.04334702 20.84245989 0.05173816 22.6875 0.0625 C23.55942993 0.05956436 24.43135986 0.05662872 25.32971191 0.05360413 C26.14065308 0.0662883 26.95159424 0.07897247 27.78710938 0.09204102 C28.49975952 0.097444 29.21240967 0.10284698 29.94665527 0.1084137 C32.45858862 0.62173886 33.33586537 1.44121807 34.84375 3.49609375 C35.23143005 5.42442322 35.23143005 5.42442322 35.24780273 7.62866211 C35.26048691 8.45639633 35.27317108 9.28413055 35.28623962 10.13694763 C35.28330399 11.02761429 35.28036835 11.91828094 35.27734375 12.8359375 C35.2825856 13.75443985 35.28782745 14.6729422 35.29322815 15.61927795 C35.29965159 17.56184885 35.29830719 19.50445862 35.28979492 21.44702148 C35.28129129 24.41916234 35.31003106 27.38937755 35.34179688 30.36132812 C35.34340913 32.24869734 35.34283089 34.13606996 35.33984375 36.0234375 C35.35669472 37.35640114 35.35669472 37.35640114 35.37388611 38.71629333 C35.33213116 42.41459806 35.23624076 44.81849605 33.36157227 48.05493164 C29.62590815 50.19316739 26.30043304 50.06919628 22.0625 50.02734375 C21.21200073 50.03117065 20.36150146 50.03499756 19.48522949 50.03894043 C17.68984796 50.04165833 15.89442676 50.03430557 14.09912109 50.01757812 C11.35294207 49.99616542 8.60937903 50.01738246 5.86328125 50.04296875 C4.11718173 50.04032545 2.37108384 50.03520042 0.625 50.02734375 C-0.19488403 50.03544067 -1.01476807 50.0435376 -1.85949707 50.05187988 C-5.3822958 49.99401392 -7.58877515 49.82448412 -10.67407227 48.0390625 C-12.91995525 44.1858065 -12.70939187 40.6630174 -12.65234375 36.27734375 C-12.65379898 35.38245239 -12.65525421 34.48756104 -12.65675354 33.56555176 C-12.65509563 31.67599223 -12.64354644 29.78641905 -12.62280273 27.89697266 C-12.59385174 25.00625189 -12.60219501 22.11736584 -12.61523438 19.2265625 C-12.60899661 17.38931401 -12.60060536 15.55207131 -12.58984375 13.71484375 C-12.59277939 12.85121216 -12.59571503 11.98758057 -12.59873962 11.09777832 C-12.54647916 7.77020386 -12.37521625 5.07976113 -11.20141602 1.95092773 C-7.76691745 -0.49221145 -4.10431883 -0.0528802 0 0 Z " fill="#FAFAFE" transform="translate(481.15625,359.50390625)"/>
<path d="M0 0 C4.87521204 -0.06906124 9.74871108 -0.12873492 14.62402344 -0.16479492 C16.28065763 -0.17983465 17.93725231 -0.20027177 19.59375 -0.22631836 C21.9818703 -0.26291515 24.36946188 -0.27977439 26.7578125 -0.29296875 C27.85973434 -0.31619453 27.85973434 -0.31619453 28.98391724 -0.33988953 C33.75105694 -0.34143207 36.95717609 0.47558117 41 3 C45.67054337 8.17546698 46.35784069 11.39604098 46.27734375 18.23828125 C45.8860997 22.13419036 44.64496521 24.14622175 42 27 C37.05122134 31.0346613 33.65104768 31.55742572 27.5390625 31.390625 C26.74849457 31.38496521 25.95792664 31.37930542 25.1434021 31.37347412 C22.63663273 31.35121487 20.13133187 31.30104153 17.625 31.25 C15.9179895 31.22992133 14.21095643 31.21167296 12.50390625 31.1953125 C8.33492682 31.15479764 4.16909248 31.07649711 0 31 C0 20.77 0 10.54 0 0 Z " fill="#FBFCFE" transform="translate(599,638)"/>
<path d="M0 0 C4.62 -0.0825 9.24 -0.165 14 -0.25 C16.16175781 -0.30462402 16.16175781 -0.30462402 18.3671875 -0.36035156 C25.68695332 -0.42352326 30.93349079 -0.28738872 37 4 C39.97440161 7.57398455 40.41010857 10.41248036 40.375 15 C40.38660156 16.5159375 40.38660156 16.5159375 40.3984375 18.0625 C39.77730511 22.64182897 37.88798709 25.20081162 34.5 28.25 C30.39753609 31.12172474 27.25638079 31.1190235 22.36328125 31.09765625 C20.60818237 31.09390991 20.60818237 31.09390991 18.81762695 31.09008789 C16.58758911 31.07643188 16.58758911 31.07643188 14.3125 31.0625 C9.589375 31.041875 4.86625 31.02125 0 31 C0 20.77 0 10.54 0 0 Z " fill="#FCFCFD" transform="translate(599,587)"/>
<path d="M0 0 C3.650625 -0.0825 7.30125 -0.165 11.0625 -0.25 C12.19953369 -0.28641602 13.33656738 -0.32283203 14.50805664 -0.36035156 C20.91325334 -0.43017525 24.85848513 0.06784683 30 4 C32.8653495 7.48294363 33.90262002 11.1931373 34.4375 15.625 C33.75694168 20.87502134 32.00696732 24.32738837 28.0625 27.8125 C23.92477842 30.76801541 21.02297763 31.12818889 16.015625 31.09765625 C15.17290039 31.09515869 14.33017578 31.09266113 13.46191406 31.09008789 C12.40198242 31.08098389 11.34205078 31.07187988 10.25 31.0625 C6.8675 31.041875 3.485 31.02125 0 31 C0 20.77 0 10.54 0 0 Z " fill="#F8FAFD" transform="translate(353,733)"/>
<path d="M0 0 C0.56976562 0.71542969 1.13953125 1.43085938 1.7265625 2.16796875 C3.92093319 4.90150612 6.14445207 7.60844979 8.375 10.3125 C12.04368971 14.78769506 15.57450221 19.33724628 19 24 C15.97030434 28.66586357 12.58356975 33.82537642 7.06987762 35.6326561 C1.5925854 36.56068468 -3.94765294 36.26281725 -9.4765625 36.07421875 C-11.25584068 36.05366884 -13.03518166 36.03802659 -14.81454468 36.02705383 C-19.46868705 35.98531118 -24.11897415 35.87750546 -28.77160645 35.75531006 C-33.53080088 35.6422092 -38.29062656 35.59242346 -43.05078125 35.53710938 C-52.36886953 35.41959634 -61.68411263 35.23219118 -71 35 C-71 38.96 -71 42.92 -71 47 C-48.56 47 -26.12 47 -3 47 C-6.81127386 51.44648617 -10.55826075 55.75200771 -14.6875 59.875 C-15.20223877 60.3896582 -15.71697754 60.90431641 -16.24731445 61.43457031 C-20.33013043 65.45807025 -24.62524628 69.1317722 -29.13671875 72.671875 C-31.58073322 74.65909549 -33.9126703 76.70703425 -36.25 78.81640625 C-40.76677264 82.85159573 -45.46054056 86.56551154 -50.3125 90.1875 C-51.16336182 90.82461914 -52.01422363 91.46173828 -52.89086914 92.11816406 C-61.3573035 98.38476877 -70.11956009 104.17759858 -79.04248047 109.77148438 C-80.68694477 110.80353032 -82.31609636 111.85991953 -83.94140625 112.921875 C-84.62074219 113.27765625 -85.30007813 113.6334375 -86 114 C-86.66 113.67 -87.32 113.34 -88 113 C-86.87926138 112.16094435 -85.75325453 111.32892169 -84.625 110.5 C-83.99851562 110.0359375 -83.37203125 109.571875 -82.7265625 109.09375 C-81 108 -81 108 -79 108 C-79 107.34 -79 106.68 -79 106 C-76.99348105 103.6133641 -74.91623813 102.27881482 -72.125 100.9375 C-71.42632813 100.60105469 -70.72765625 100.26460938 -70.0078125 99.91796875 C-67.70102962 98.86331121 -65.37501596 97.89063098 -63 97 C-63.33 96.01 -63.66 95.02 -64 94 C-62.515 93.505 -62.515 93.505 -61 93 C-60.54625 92.525625 -60.0925 92.05125 -59.625 91.5625 C-57.62064885 89.63523928 -55.56472264 89.01239052 -53 88 C-52.67 87.34 -52.34 86.68 -52 86 C-51.34 86 -50.68 86 -50 86 C-49.01 84.515 -49.01 84.515 -48 83 C-48 83.66 -48 84.32 -48 85 C-44.77595022 83.33045181 -44.77595022 83.33045181 -44.3125 80.375 C-44.209375 79.59125 -44.10625 78.8075 -44 78 C-42.39125 77.9071875 -42.39125 77.9071875 -40.75 77.8125 C-36.89070027 77.33053869 -36.89070027 77.33053869 -34.5625 74.5625 C-32.82646419 72.21561824 -32.82646419 72.21561824 -33 70 C-32.05125 69.7525 -31.1025 69.505 -30.125 69.25 C-26.92645362 68.33836534 -26.92645362 68.33836534 -25.8125 66 C-25.544375 65.34 -25.27625 64.68 -25 64 C-24.01 63.34 -23.02 62.68 -22 62 C-20.80767387 59.94996045 -20.80767387 59.94996045 -20 58 C-18.68 58 -17.36 58 -16 58 C-15.67 56.68 -15.34 55.36 -15 54 C-14.34 54 -13.68 54 -13 54 C-13.33 53.01 -13.66 52.02 -14 51 C-14.65288498 51.00222061 -15.30576996 51.00444122 -15.97843933 51.00672913 C-22.77541558 51.02885756 -29.57238158 51.04393823 -36.36938477 51.05493164 C-38.90584733 51.05995948 -41.44230699 51.06678262 -43.97875977 51.07543945 C-47.62517004 51.08757274 -51.27154197 51.09324384 -54.91796875 51.09765625 C-56.05147263 51.10281754 -57.1849765 51.10797882 -58.35282898 51.11329651 C-59.94391228 51.11340981 -59.94391228 51.11340981 -61.56713867 51.11352539 C-62.96279305 51.11685631 -62.96279305 51.11685631 -64.38664246 51.12025452 C-67.04662771 50.99785441 -69.43317279 50.71349209 -72 50 C-73.53266582 46.93466836 -73.10276471 43.73245728 -73.0625 40.375 C-73.05798828 39.66859375 -73.05347656 38.9621875 -73.04882812 38.234375 C-73.03703875 36.48954725 -73.01910324 34.744763 -73 33 C-71.47570122 33.00785522 -71.47570122 33.00785522 -69.92060852 33.01586914 C-60.34170266 33.06002394 -50.76358312 33.06220815 -41.18464375 33.02334595 C-36.25990524 33.00471376 -31.33607884 33.00084698 -26.41137695 33.03076172 C-21.65815424 33.05909098 -16.90645504 33.04858549 -12.15331078 33.01119995 C-10.34044906 33.00375587 -8.52747417 33.01028385 -6.71471596 33.03103638 C2.7976249 33.54854458 2.7976249 33.54854458 11.28262329 30.2578125 C12.72286357 28.1119598 13.55881501 26.54316757 14 24 C12.88820837 20.66462511 11.52588702 19.36292656 9 17 C8.34 17.33 7.68 17.66 7 18 C6.71125 17.0925 6.4225 16.185 6.125 15.25 C4.77588431 11.35255467 3.87805051 8.80278903 0.8125 6 C0.214375 5.34 -0.38375 4.68 -1 4 C-0.75 1.75 -0.75 1.75 0 0 Z " fill="#061795" transform="translate(597,350)"/>
<path d="M0 0 C4.42846345 3.98058036 5.75937027 9.05415404 6.23583984 14.88720703 C6.2937476 17.95136893 6.26288421 20.99880834 6.1875 24.0625 C6.17396484 25.11888672 6.16042969 26.17527344 6.14648438 27.26367188 C6.1114709 29.84299809 6.06236675 32.42121494 6 35 C6.89234344 34.99111755 7.78468689 34.98223511 8.70407104 34.9730835 C17.14796954 34.8926571 25.59173783 34.83189372 34.03593254 34.79275131 C38.37633593 34.77195065 42.71642061 34.7437722 47.05664062 34.69824219 C51.25177227 34.65451379 55.44659896 34.63080644 59.64194107 34.62049103 C61.23580851 34.61314775 62.82966083 34.59880893 64.42339706 34.57707977 C74.93167902 34.4396156 83.23866463 35.23297303 92.25 41.125 C98.36041693 47.51316316 102.15803552 54.30269692 102.0625 63.1875 C102.05347656 64.27417969 102.04445313 65.36085938 102.03515625 66.48046875 C102.02355469 67.31191406 102.01195312 68.14335937 102 69 C101.31824707 69.1952124 100.63649414 69.3904248 99.93408203 69.59155273 C86.78854573 73.37421206 73.70647705 77.29691135 60.75 81.6875 C59.67508301 82.04320068 58.60016602 82.39890137 57.49267578 82.76538086 C50.58252587 85.14805856 44.32771757 87.50842365 40.125 93.8125 C38.78232846 97.61673603 38.34612446 100.98495625 38 105 C37.01 104.505 37.01 104.505 36 104 C34.99023248 98.9511624 34.51104987 95.6850826 37 91 C37.99 91.33 38.98 91.66 40 92 C40.268125 91.05125 40.53625 90.1025 40.8125 89.125 C42 86 42 86 45 84 C47.32387947 83.60612212 49.65793749 83.26513915 52 83 C52.495 81.515 52.495 81.515 53 80 C54.64453125 79.15625 54.64453125 79.15625 56.8125 78.5 C57.61558594 78.25378906 58.41867187 78.00757813 59.24609375 77.75390625 C63.27351232 76.65136471 67.3281223 75.67690226 71.3984375 74.74609375 C74.20232523 74.08455035 74.20232523 74.08455035 77 72 C80.31210511 71.38538256 83.62702744 70.98397852 86.96875 70.5625 C90.16330348 70.17538322 90.16330348 70.17538322 93 68 C94.32 68 95.64 68 97 68 C97.495 66.02 97.495 66.02 98 64 C98.66 64 99.32 64 100 64 C99.505 61.03 99.505 61.03 99 58 C98.34 58 97.68 58 97 58 C96.896875 57.154375 96.79375 56.30875 96.6875 55.4375 C95.88755582 51.43777909 94.96774476 48.58410653 93 45 C90.42267086 43.94832473 90.42267086 43.94832473 88 44 C88 43.01 88 42.02 88 41 C87.34 41 86.68 41 86 41 C86 40.34 86 39.68 86 39 C78.32704421 37.93594213 70.69497877 37.80936958 62.96064949 37.73963928 C60.61956787 37.71838144 58.27861175 37.69138816 55.93760681 37.66296387 C50.13368118 37.5936063 44.32966729 37.53356463 38.52563477 37.47393799 C33.59844057 37.4230382 28.67132041 37.36828032 23.74423027 37.30812073 C21.43644777 37.28155268 19.12865809 37.26074857 16.82081604 37.2401123 C15.4144761 37.22351788 14.00813938 37.20664681 12.60180664 37.18945312 C11.37208633 37.17692505 10.14236603 37.16439697 8.87538147 37.15148926 C6 37 6 37 4 36 C3.98541748 35.26475098 3.97083496 34.52950195 3.95581055 33.77197266 C3.88060745 30.3891622 3.78418818 27.00726189 3.6875 23.625 C3.66494141 22.46871094 3.64238281 21.31242187 3.61914062 20.12109375 C3.39662063 12.95999564 2.49034433 6.73133627 0 0 Z " fill="#0B1E9A" transform="translate(559,244)"/>
<path d="M0 0 C1.32 0 2.64 0 4 0 C4 26.07 4 52.14 4 79 C18.52 79 33.04 79 48 79 C48 85.27 48 91.54 48 98 C26.88 98 5.76 98 -16 98 C-16 74.9 -16 51.8 -16 28 C-15.67 28 -15.34 28 -15 28 C-15 50.44 -15 72.88 -15 96 C5.13 96 25.26 96 46 96 C46 91.05 46 86.1 46 81 C44.73293213 81.00523682 43.46586426 81.01047363 42.16040039 81.01586914 C37.4771393 81.03391514 32.79388129 81.04543053 28.1105957 81.05493164 C26.08031702 81.05997278 24.05004198 81.06680557 22.01977539 81.07543945 C19.10822653 81.08751467 16.1967255 81.09323034 13.28515625 81.09765625 C11.91485008 81.10539818 11.91485008 81.10539818 10.51686096 81.11329651 C8.34424573 81.11349168 6.17172704 81.06211805 4 81 C2.2917059 79.2917059 2.88028074 77.13995623 2.87557983 74.86213684 C2.87917511 74.12702377 2.88277039 73.39191071 2.88647461 72.63452148 C2.88632858 71.86384338 2.88618256 71.09316528 2.8860321 70.2991333 C2.8867314 67.73975861 2.89452455 65.1804558 2.90234375 62.62109375 C2.90420787 60.85132385 2.9056318 59.08155344 2.90663147 57.31178284 C2.91045712 52.64448634 2.9202878 47.97722077 2.93133545 43.30993652 C2.94154856 38.55102965 2.94612887 33.79211779 2.95117188 29.03320312 C2.96191003 19.68878847 2.97898701 10.3443968 3 1 C2.01 0.67 1.02 0.34 0 0 Z " fill="#0C1791" transform="translate(442,716)"/>
<path d="M0 0 C6.93 0 13.86 0 21 0 C21.06801368 9.08453444 21.12295256 18.16889734 21.15543652 27.25362968 C21.17103406 31.4728943 21.19216302 35.69197437 21.22631836 39.91113281 C21.25912437 43.9895418 21.27689737 48.06777424 21.28463173 52.14630508 C21.29013739 53.69549459 21.30088773 55.2446754 21.31719017 56.79378891 C21.52258332 77.13618433 21.52258332 77.13618433 16.39567566 82.75973511 C15.93510269 83.16902252 15.47452972 83.57830994 15 84 C15.57584432 81.61435923 16.22227595 79.33317216 17 77 C18.1707916 68.61189136 18.19076066 60.14033182 18.28125 51.6875 C18.29934017 50.34276655 18.31794531 48.99803993 18.33703613 47.65332031 C18.40608852 42.71632048 18.46643393 37.77922346 18.52606201 32.84210205 C18.57703393 28.64113652 18.63179291 24.44025581 18.69187927 20.2394104 C18.71835777 18.27903945 18.7391654 16.31859455 18.7598877 14.3581543 C18.77660522 13.17261963 18.79332275 11.98708496 18.81054688 10.765625 C18.82307495 9.72180664 18.83560303 8.67798828 18.84851074 7.60253906 C19 5 19 5 20 2 C14.06 2 8.12 2 2 2 C2 2.66 2 3.32 2 4 C2.66 4.33 3.32 4.66 4 5 C3.34 5 2.68 5 2 5 C2.00222061 5.6203714 2.00444122 6.2407428 2.00672913 6.87991333 C2.02904615 13.40252093 2.04401546 19.92511749 2.05493164 26.44775391 C2.05992563 28.87419069 2.06672313 31.30062452 2.07543945 33.72705078 C2.18359368 64.6337113 2.18359368 64.6337113 1 71 C0.01 71.495 0.01 71.495 -1 72 C-0.67 48.24 -0.34 24.48 0 0 Z " fill="#08168F" transform="translate(564,715)"/>
<path d="M0 0 C5.88981485 -0.12375961 11.77887012 -0.21441514 17.66967773 -0.2746582 C19.67274156 -0.2997755 21.67571398 -0.33387595 23.6784668 -0.37719727 C26.56061366 -0.43797188 29.44154721 -0.46623732 32.32421875 -0.48828125 C33.21711105 -0.51408768 34.11000336 -0.5398941 35.029953 -0.56648254 C39.4382742 -0.56846331 41.40470054 -0.43510512 45.05834961 2.23535156 C47.0405723 5.05776948 47.64716839 6.33838073 47.7421875 9.72265625 C47.79246094 11.02493164 47.79246094 11.02493164 47.84375 12.35351562 C47.8540625 13.24748047 47.864375 14.14144531 47.875 15.0625 C47.92527344 16.40924805 47.92527344 16.40924805 47.9765625 17.78320312 C48.09421613 21.73930634 48.10882895 25.17470368 47 29 C48.32 29.33 49.64 29.66 51 30 C49.68 30.33 48.36 30.66 47 31 C47.185625 32.216875 47.37125 33.43375 47.5625 34.6875 C48.22937577 40.0987205 47.13815165 44.01097948 45 49 C44.34 49 43.68 49 43 49 C42.67 50.32 42.34 51.64 42 53 C36.34000977 53.02467467 30.68005068 53.04284788 25.02001953 53.05493164 C23.09358169 53.05996787 21.16714769 53.06679712 19.24072266 53.07543945 C16.47557632 53.08753608 13.71048042 53.09323533 10.9453125 53.09765625 C9.6483696 53.10539818 9.6483696 53.10539818 8.32522583 53.11329651 C2.22774341 53.11387171 2.22774341 53.11387171 0 52 C0 51.34 0 50.68 0 50 C-0.66 50 -1.32 50 -2 50 C-2.33 48.68 -2.66 47.36 -3 46 C-2.52183838 46.48678223 -2.04367676 46.97356445 -1.55102539 47.47509766 C2.18424625 49.70789569 5.54052369 49.42998726 9.81640625 49.3984375 C10.66927719 49.40130768 11.52214813 49.40417786 12.40086365 49.40713501 C14.20043605 49.40917323 16.00003073 49.40366028 17.79956055 49.39111328 C20.55632909 49.37503599 23.31163596 49.3909799 26.06835938 49.41015625 C27.81771157 49.40817416 29.56706286 49.4043312 31.31640625 49.3984375 C32.14145157 49.40451019 32.96649689 49.41058289 33.81654358 49.4168396 C38.02397655 49.47064779 38.02397655 49.47064779 41.71780396 47.73600769 C43.29716669 45.59765618 43.37457981 44.47537434 43.37231445 41.83569336 C43.37854324 41.00150375 43.38477203 40.16731415 43.39118958 39.30784607 C43.38197983 38.4109053 43.37277008 37.51396454 43.36328125 36.58984375 C43.36377975 35.66659805 43.36427826 34.74335236 43.36479187 33.79212952 C43.36245179 31.8411341 43.35272717 29.89013564 43.33618164 27.93920898 C43.31256333 24.94552772 43.31562432 21.95273527 43.32226562 18.95898438 C43.31668981 17.06509883 43.30958054 15.17121706 43.30078125 13.27734375 C43.30169266 12.37837875 43.30260406 11.47941376 43.30354309 10.5532074 C43.28924507 9.30665123 43.28924507 9.30665123 43.2746582 8.03491211 C43.27005081 7.30227646 43.26544342 6.56964081 43.26069641 5.81480408 C43.14904299 3.74945741 43.14904299 3.74945741 41 2 C39.14463576 1.67110612 39.14463576 1.67110612 37.00927734 1.68115234 C36.18857758 1.66128265 35.36787781 1.64141296 34.52230835 1.62094116 C33.63580597 1.60938995 32.74930359 1.59783875 31.8359375 1.5859375 C30.92872955 1.56657135 30.02152161 1.5472052 29.08682251 1.5272522 C26.18297796 1.46736784 23.27909396 1.42103584 20.375 1.375 C18.40883667 1.33682835 16.4426902 1.29777711 14.4765625 1.2578125 C9.6511783 1.16165909 4.82571582 1.077661 0 1 C0 0.67 0 0.34 0 0 Z " fill="#0725A7" transform="translate(472,359)"/>
<path d="M0 0 C6.93 0 13.86 0 21 0 C20.67 0.99 20.34 1.98 20 3 C14.39 3 8.78 3 3 3 C3.00666183 4.17319794 3.01332367 5.34639587 3.02018738 6.55514526 C3.08090552 17.59160175 3.12592784 28.62802452 3.15543652 39.66460991 C3.17111703 45.33913997 3.19239877 51.0135356 3.22631836 56.68798828 C3.25882679 62.16038465 3.27683502 67.63265142 3.28463173 73.10513687 C3.29019058 75.19681973 3.3010451 77.2884952 3.31719017 79.38012314 C3.33885126 82.30158778 3.34197169 85.22251143 3.34057617 88.14404297 C3.351362 89.01582184 3.36214783 89.88760071 3.3732605 90.78579712 C3.36076355 93.19088745 3.36076355 93.19088745 3 97 C1.515 97.99 1.515 97.99 0 99 C0 66.33 0 33.66 0 0 Z " fill="#2841B5" transform="translate(425,715)"/>
<path d="M0 0 C0.99 0.495 0.99 0.495 2 1 C0.63182703 1.82394416 -0.74494911 2.63360897 -2.125 3.4375 C-2.89070312 3.88996094 -3.65640625 4.34242188 -4.4453125 4.80859375 C-10.65580702 7.70492529 -17.5586754 7.14813993 -24.26611328 7.14526367 C-25.95491104 7.15030159 -25.95491104 7.15030159 -27.67782593 7.15544128 C-31.39199939 7.16492541 -35.10612769 7.16689282 -38.8203125 7.16796875 C-41.40290343 7.17118198 -43.98549417 7.17454611 -46.56808472 7.17805481 C-51.97654724 7.18403892 -57.38499185 7.1859382 -62.79345703 7.18530273 C-69.04308421 7.18470098 -75.29262534 7.19527634 -81.54223073 7.2110464 C-87.56183247 7.22569392 -93.58138741 7.22929099 -99.60100937 7.22869301 C-102.1599246 7.22987501 -104.71884043 7.23430905 -107.27774429 7.24202538 C-110.84946161 7.2517913 -114.42095508 7.24896108 -117.99267578 7.24291992 C-119.05355408 7.24853943 -120.11443237 7.25415894 -121.2074585 7.25994873 C-122.18032806 7.25575424 -123.15319763 7.25155975 -124.1555481 7.24723816 C-124.9994919 7.24778293 -125.84343571 7.24832769 -126.71295357 7.24888897 C-129 7 -129 7 -133 5 C-130.03 4.34 -127.06 3.68 -124 3 C-124 3.33 -124 3.66 -124 4 C-109.30901919 4.09366672 -94.6180782 4.16408816 -79.9268589 4.20724869 C-73.10462046 4.22782642 -66.28256815 4.25585449 -59.46044922 4.30175781 C-52.87281095 4.34606207 -46.28531476 4.3691595 -39.69752121 4.37950897 C-37.18819517 4.38688152 -34.67887931 4.40127831 -32.16963577 4.42292023 C-28.64622683 4.45209185 -25.12360855 4.4559501 -21.60009766 4.45410156 C-20.05505051 4.47567322 -20.05505051 4.47567322 -18.47879028 4.49768066 C-12.26194698 4.46254635 -7.6096994 3.42825662 -1.97499657 0.76137924 C-1.3232477 0.51012409 -0.67149883 0.25886894 0 0 Z " fill="#121D9E" transform="translate(648,513)"/>
<path d="M0 0 C0.56976562 0.71542969 1.13953125 1.43085938 1.7265625 2.16796875 C3.92093319 4.90150612 6.14445207 7.60844979 8.375 10.3125 C12.04368971 14.78769506 15.57450221 19.33724628 19 24 C15.96888854 28.64481759 12.57938959 33.81635989 7.08681488 35.6326561 C1.6767088 36.55909798 -3.79562673 36.26297382 -9.2578125 36.07421875 C-11.0146698 36.05366821 -12.77159071 36.03802626 -14.52853394 36.02705383 C-19.12351619 35.98531581 -23.71459205 35.87751521 -28.30804443 35.75531006 C-33.00690875 35.64219849 -37.70641284 35.59242126 -42.40625 35.53710938 C-51.60587078 35.41960472 -60.80260896 35.2322061 -70 35 C-69.67 34.34 -69.34 33.68 -69 33 C-68.03391312 33.00523682 -67.06782623 33.01047363 -66.07246399 33.01586914 C-56.96446191 33.06003026 -47.8572868 33.06220285 -38.74924946 33.02334595 C-34.06663126 33.00471621 -29.38497222 33.00084141 -24.70239258 33.03076172 C-20.18256123 33.05909802 -15.66433169 33.04857802 -11.14458275 33.01119995 C-9.42103597 33.00375773 -7.69737011 33.01027875 -5.97393227 33.03103638 C3.14072629 33.51528101 3.14072629 33.51528101 11.22891235 30.2578125 C12.66207657 28.1210449 13.52316054 26.52563876 14 24 C12.88820837 20.66462511 11.52588702 19.36292656 9 17 C8.34 17.33 7.68 17.66 7 18 C6.71125 17.0925 6.4225 16.185 6.125 15.25 C4.77588431 11.35255467 3.87805051 8.80278903 0.8125 6 C0.214375 5.34 -0.38375 4.68 -1 4 C-0.75 1.75 -0.75 1.75 0 0 Z " fill="#061F91" transform="translate(597,350)"/>
<path d="M0 0 C6.93 0 13.86 0 21 0 C21.02505615 2.02850098 21.0501123 4.05700195 21.07592773 6.14697266 C21.15952642 12.86051387 21.2481959 19.57398128 21.33933926 26.28742409 C21.39442663 30.35646584 21.44782329 34.42551494 21.49731445 38.49462891 C21.54516807 42.42393352 21.59751724 46.35315521 21.65294075 50.28236008 C21.67326954 51.77898459 21.6919977 53.27563175 21.70907402 54.77229691 C21.73332922 56.87383425 21.76335288 58.9752179 21.79467773 61.07666016 C21.81799416 62.8686937 21.81799416 62.8686937 21.84178162 64.69692993 C21.9939451 67.87359389 22.40761881 70.87824926 23 74 C19.77084717 70.53297508 19.61076308 67.96241225 19.56762695 63.30371094 C19.5574353 62.63988403 19.54724365 61.97605713 19.53674316 61.29211426 C19.50663903 59.10611504 19.49735168 56.92055418 19.48828125 54.734375 C19.47143255 53.21550035 19.45328205 51.69663963 19.43388367 50.17779541 C19.38639782 46.18628288 19.35657953 42.19482682 19.33044434 38.203125 C19.30063153 34.12749072 19.25410371 30.05205099 19.20898438 25.9765625 C19.12296726 17.98445443 19.05716052 9.99236661 19 2 C13.39 2 7.78 2 2 2 C2 25.43 2 48.86 2 73 C-0.12188907 68.75622186 -0.2440091 66.85849387 -0.22705078 62.21191406 C-0.22734283 61.53833359 -0.22763489 60.86475311 -0.22793579 60.17076111 C-0.22654641 57.95224974 -0.21100401 55.73407744 -0.1953125 53.515625 C-0.19158097 51.97434676 -0.18873466 50.43306613 -0.18673706 48.89178467 C-0.17911161 44.84097714 -0.15947253 40.7903137 -0.1373291 36.73956299 C-0.1168472 32.6037389 -0.10773033 28.46789147 -0.09765625 24.33203125 C-0.07622553 16.22128077 -0.04105232 8.11067493 0 0 Z " fill="#101E8E" transform="translate(501,715)"/>
<path d="M0 0 C1.32 0.33 2.64 0.66 4 1 C3.67 1.33 3.34 1.66 3 2 C2.67 5.96 2.34 9.92 2 14 C23.78 14 45.56 14 68 14 C62 21 62 21 60 23 C59.01 22.67 58.02 22.34 57 22 C57.99 21.67 58.98 21.34 60 21 C59.505 19.515 59.505 19.515 59 18 C58.34711502 18.00222061 57.69423004 18.00444122 57.02156067 18.00672913 C50.22458442 18.02885756 43.42761842 18.04393823 36.63061523 18.05493164 C34.09415267 18.05995948 31.55769301 18.06678262 29.02124023 18.07543945 C25.37482996 18.08757274 21.72845803 18.09324384 18.08203125 18.09765625 C16.94852737 18.10281754 15.8150235 18.10797882 14.64717102 18.11329651 C13.05608772 18.11340981 13.05608772 18.11340981 11.43286133 18.11352539 C10.03720695 18.11685631 10.03720695 18.11685631 8.61335754 18.12025452 C5.95337229 17.99785441 3.56682721 17.71349209 1 17 C-0.53266582 13.93466836 -0.10276471 10.73245728 -0.0625 7.375 C-0.05798828 6.66859375 -0.05347656 5.9621875 -0.04882812 5.234375 C-0.03703875 3.48954725 -0.01910324 1.744763 0 0 Z " fill="#1A34B1" transform="translate(524,383)"/>
<path d="M0 0 C0.33 0 0.66 0 1 0 C0.98839844 0.69867188 0.97679687 1.39734375 0.96484375 2.1171875 C0.95582031 3.02726563 0.94679688 3.93734375 0.9375 4.875 C0.92589844 5.77992188 0.91429687 6.68484375 0.90234375 7.6171875 C0.83750743 10.0168585 0.83750743 10.0168585 2 12 C1.34 12 0.68 12 0 12 C0 14.64 0 17.28 0 20 C0.66 20.33 1.32 20.66 2 21 C0.375 27.75 0.375 27.75 -3 30 C-5.82617188 29.99633789 -5.82617188 29.99633789 -9.46875 29.66015625 C-17.03004819 29.05509467 -24.57277105 28.81959084 -32.15625 28.68359375 C-33.31833984 28.66237457 -34.48042969 28.6411554 -35.67773438 28.61929321 C-39.28511509 28.5559555 -42.89254818 28.4966346 -46.5 28.4375 C-48.98047449 28.39420763 -51.46094332 28.35059034 -53.94140625 28.30664062 C-59.96087754 28.20068318 -65.98040602 28.09872852 -72 28 C-72 27.67 -72 27.34 -72 27 C-48.9 27 -25.8 27 -2 27 C-2 18.75 -2 10.5 -2 2 C-1.34 1.34 -0.68 0.68 0 0 Z " fill="#0747BA" transform="translate(422,252)"/>
<path d="M0 0 C0.11639714 8.0413798 0.20496723 16.08240142 0.25906086 24.12441826 C0.28503731 27.85961769 0.32021169 31.59423631 0.37719727 35.32910156 C0.4319507 38.94071191 0.46151017 42.55176743 0.47438622 46.16376114 C0.48354931 47.53438158 0.50144105 48.90497531 0.52865028 50.27535629 C0.69672512 59.09989933 -0.16325985 65.50320701 -5 73 C-5.33 72.34 -5.66 71.68 -6 71 C-5.30181404 69.64743607 -5.30181404 69.64743607 -4.58952332 68.26754761 C-2.87805018 64.74931049 -2.60784719 62.59646882 -2.56762695 58.71923828 C-2.54783279 57.4984256 -2.52803864 56.27761292 -2.50764465 55.01980591 C-2.50125473 53.71647308 -2.49486481 52.41314026 -2.48828125 51.0703125 C-2.47141945 49.71123649 -2.4532672 48.35217593 -2.43388367 46.99313354 C-2.38653976 43.43238149 -2.35663009 39.8716921 -2.33044434 36.31072998 C-2.30055946 32.67056913 -2.25405658 29.03062388 -2.20898438 25.390625 C-2.1231294 18.26054039 -2.05570542 11.13038911 -2 4 C-2.66 3.67 -3.32 3.34 -4 3 C-1.125 0 -1.125 0 0 0 Z " fill="#05138B" transform="translate(661,435)"/>
<path d="M0 0 C1.10091476 0.02009628 2.20182953 0.04019257 3.33610535 0.06089783 C4.52367935 0.08793289 5.71125336 0.11496796 6.93481445 0.14282227 C8.7596209 0.17823875 8.7596209 0.17823875 10.62129211 0.21437073 C14.51367734 0.29105267 18.4058659 0.37505794 22.2980957 0.45922852 C24.93415373 0.51244463 27.57022141 0.56518506 30.20629883 0.61743164 C36.67451995 0.74667401 43.14259454 0.88193221 49.6105957 1.02172852 C47.6105957 3.02172852 47.6105957 3.02172852 45.55696106 3.2487793 C44.71203598 3.23830566 43.8671109 3.22783203 42.99658203 3.21704102 C42.03831009 3.21043457 41.08003815 3.20382812 40.09272766 3.19702148 C39.05319443 3.1804248 38.01366119 3.16382813 36.94262695 3.14672852 C35.34036507 3.13536865 35.34036507 3.13536865 33.70573425 3.1237793 C29.12492322 3.09103461 24.54446536 3.03502445 19.96386719 2.98071289 C16.62347069 2.94444314 13.28313335 2.92030675 9.94262695 2.89672852 C8.91321487 2.88013184 7.8838028 2.86353516 6.82319641 2.84643555 C1.31689691 2.80908868 -3.19164708 3.17881336 -8.3894043 5.02172852 C-9.2969043 5.33110352 -10.2044043 5.64047852 -11.1394043 5.95922852 C-13.4414028 6.87438464 -13.4414028 6.87438464 -14.8894043 8.64672852 C-16.3894043 10.02172852 -16.3894043 10.02172852 -19.0769043 10.20922852 C-19.8400293 10.14735352 -20.6031543 10.08547852 -21.3894043 10.02172852 C-15.69282089 3.61307218 -8.68528387 -0.17887312 0 0 Z " fill="#0B6DD7" transform="translate(353.389404296875,278.978271484375)"/>
<path d="M0 0 C2.64 0.99 5.28 1.98 8 3 C8.33 3.99 8.66 4.98 9 6 C6 7 6 7 2 6 C1.67 36.69 1.34 67.38 1 99 C0.67 99 0.34 99 0 99 C0 66.33 0 33.66 0 0 Z " fill="#0A5AE2" transform="translate(327,393)"/>
<path d="M0 0 C0 0.66 0 1.32 0 2 C-3.58310044 3.52905202 -7.08114469 4.56540599 -10.875 5.4375 C-14.41878954 6.29184533 -17.73917335 7.18527132 -21.0625 8.6875 C-24 10 -24 10 -27 10 C-27.12428864 12.79219782 -27.12428864 12.79219782 -26 16 C-24.01261379 17.78990809 -21.95228495 19.24033391 -19.71484375 20.703125 C-19.14894531 21.13109375 -18.58304688 21.5590625 -18 22 C-18 22.66 -18 23.32 -18 24 C-17.44828125 24.23460937 -16.8965625 24.46921875 -16.328125 24.7109375 C-13.40674236 26.32848158 -11.20425503 28.36450195 -8.75 30.625 C-7.85796875 31.44226563 -6.9659375 32.25953125 -6.046875 33.1015625 C-5.37140625 33.72804688 -4.6959375 34.35453125 -4 35 C-4.33 35.66 -4.66 36.32 -5 37 C-5.73863281 36.31035156 -6.47726562 35.62070312 -7.23828125 34.91015625 C-8.2624975 33.96037284 -9.28727977 33.0111996 -10.3125 32.0625 C-11.11651245 31.31577026 -11.11651245 31.31577026 -11.93676758 30.55395508 C-16.39199103 26.45807653 -21.05024961 22.76827032 -25.91796875 19.16796875 C-28.56365094 16.41308392 -29.06466237 14.80513192 -29 11 C-26.31759744 7.70919744 -23.92069849 6.3192873 -19.90234375 5.078125 C-18.93619141 4.77519531 -17.97003906 4.47226562 -16.97460938 4.16015625 C-15.97236328 3.85980469 -14.97011719 3.55945313 -13.9375 3.25 C-12.93138672 2.93417969 -11.92527344 2.61835938 -10.88867188 2.29296875 C-3.45885755 0 -3.45885755 0 0 0 Z " fill="#111D96" transform="translate(641,333)"/>
<path d="M0 0 C-16.29126631 8.84168033 -32.87639413 17.01749699 -50.1875 23.6875 C-50.84065186 23.94370117 -51.49380371 24.19990234 -52.16674805 24.46386719 C-56.63524653 26.12158449 -56.63524653 26.12158449 -60 25 C-59.41734375 24.764021 -58.8346875 24.52804199 -58.234375 24.28491211 C-42.40440981 17.86575872 -42.40440981 17.86575872 -26.75 11.03295898 C-22.20723758 9 -22.20723758 9 -20 9 C-19.67 8.01 -19.34 7.02 -19 6 C-5.27868852 -2.63934426 -5.27868852 -2.63934426 0 0 Z " fill="#0A1B95" transform="translate(500,470)"/>
<path d="M0 0 C0.56976562 0.71542969 1.13953125 1.43085938 1.7265625 2.16796875 C3.92093319 4.90150612 6.14445207 7.60844979 8.375 10.3125 C12.04499971 14.78929304 15.56938384 19.33788061 19 24 C16.03 27.465 16.03 27.465 13 31 C12.34 30.67 11.68 30.34 11 30 C11.309375 29.2575 11.61875 28.515 11.9375 27.75 C12.8094925 25.49307824 13.47667007 23.3549847 14 21 C13.34 21 12.68 21 12 21 C10.375 19 10.375 19 9 17 C8.34 17.33 7.68 17.66 7 18 C6.71125 17.0925 6.4225 16.185 6.125 15.25 C4.77588431 11.35255467 3.87805051 8.80278903 0.8125 6 C0.214375 5.34 -0.38375 4.68 -1 4 C-0.75 1.75 -0.75 1.75 0 0 Z " fill="#0B1E9F" transform="translate(597,350)"/>
<path d="M0 0 C-0.66 0 -1.32 0 -2 0 C-2 0.66 -2 1.32 -2 2 C10.87 2.495 10.87 2.495 24 3 C24 3.33 24 3.66 24 4 C16.42592304 5.2014716 8.90647625 5.18369837 1.25 5.1875 C-0.06355469 5.19974609 -1.37710937 5.21199219 -2.73046875 5.22460938 C-4.61958984 5.22750977 -4.61958984 5.22750977 -6.546875 5.23046875 C-7.68995117 5.23457764 -8.83302734 5.23868652 -10.01074219 5.24291992 C-12.90546366 5.00768243 -14.5556874 4.50882109 -17 3 C-14.73194205 2.30190555 -12.46133393 1.61628983 -10.1875 0.9375 C-9.54490234 0.73833984 -8.90230469 0.53917969 -8.24023438 0.33398438 C-3.33984375 -1.11328125 -3.33984375 -1.11328125 0 0 Z " fill="#0E26A4" transform="translate(414,519)"/>
<path d="M0 0 C9.57 0 19.14 0 29 0 C29 0.33 29 0.66 29 1 C27.87972412 1.03758423 27.87972412 1.03758423 26.73681641 1.07592773 C23.36602733 1.19168213 19.99553217 1.31450128 16.625 1.4375 C15.449375 1.47681641 14.27375 1.51613281 13.0625 1.55664062 C11.94101562 1.59853516 10.81953125 1.64042969 9.6640625 1.68359375 C8.10872803 1.73858032 8.10872803 1.73858032 6.52197266 1.79467773 C4.00574834 1.84164223 4.00574834 1.84164223 2 3 C1.67 11.91 1.34 20.82 1 30 C10.24 30 19.48 30 29 30 C29 30.33 29 30.66 29 31 C19.43 31 9.86 31 0 31 C0 20.77 0 10.54 0 0 Z " fill="#B7C2F3" transform="translate(599,587)"/>
<path d="M0 0 C3.63 0 7.26 0 11 0 C6.32541113 3.11639258 1.08875767 3.57732294 -4.375 4.625 C-5.49261719 4.85445312 -6.61023438 5.08390625 -7.76171875 5.3203125 C-18.74890434 7.44931732 -29.17636679 9.16384829 -39 3 C-38.34 2.67 -37.68 2.34 -37 2 C-35.205625 2.7115625 -35.205625 2.7115625 -33.375 3.4375 C-26.99172698 5.96541463 -20.67914252 5.41289553 -14 4 C-13.38125 3.4946875 -12.7625 2.989375 -12.125 2.46875 C-9.46794072 0.63225314 -7.94110116 0.68653548 -4.75 0.8125 C-3.41195312 0.85310547 -3.41195312 0.85310547 -2.046875 0.89453125 C-1.37140625 0.92933594 -0.6959375 0.96414063 0 1 C0 0.67 0 0.34 0 0 Z " fill="#0B29A4" transform="translate(376,511)"/>
<path d="M0 0 C0 0.99 0 1.98 0 3 C-1.26228928 2.75885216 -1.26228928 2.75885216 -2.55007935 2.51283264 C-6.14319245 1.97871436 -9.56701407 1.83991264 -13.19873047 1.79467773 C-13.89211014 1.78477814 -14.58548981 1.77487854 -15.29988098 1.76467896 C-17.57228277 1.73330674 -19.84470541 1.70840353 -22.1171875 1.68359375 C-23.70045488 1.6630032 -25.28371703 1.6420062 -26.86697388 1.62062073 C-31.01956929 1.56561691 -35.17221251 1.51611265 -39.32489014 1.46777344 C-43.56819884 1.41739932 -47.81143873 1.36179658 -52.0546875 1.30664062 C-60.36973335 1.19932464 -68.68483705 1.09782151 -77 1 C-77 0.67 -77 0.34 -77 0 C-67.84646945 -0.15408266 -58.6928677 -0.30226151 -49.53912163 -0.4429636 C-45.28839776 -0.50848568 -41.03772591 -0.57601906 -36.78710938 -0.64819336 C-32.68286653 -0.71780753 -28.57857122 -0.78208038 -24.47418594 -0.84269524 C-22.91052352 -0.86671808 -21.34688912 -0.89264546 -19.78329086 -0.92053413 C-17.58848192 -0.95935161 -15.39366978 -0.9913152 -13.19873047 -1.02172852 C-11.32675491 -1.05170677 -11.32675491 -1.05170677 -9.41696167 -1.08229065 C-6.17482082 -1.00421021 -3.17842131 -0.62150782 0 0 Z " fill="#0F34B9" transform="translate(642,280)"/>
<path d="M0 0 C-2.31 0.66 -4.62 1.32 -7 2 C-7 2.66 -7 3.32 -7 4 C-8.04607422 4.16822266 -8.04607422 4.16822266 -9.11328125 4.33984375 C-19.37689848 6.25722279 -29.06976805 9.56620927 -38.9309082 12.95092773 C-40.64346802 13.53789429 -40.64346802 13.53789429 -42.390625 14.13671875 C-43.42219727 14.49467529 -44.45376953 14.85263184 -45.51660156 15.22143555 C-48 16 -48 16 -50 16 C-50 15.34 -50 14.68 -50 14 C-49.35264893 13.79431396 -48.70529785 13.58862793 -48.03833008 13.37670898 C-44.96257598 12.39846676 -41.8875348 11.41800089 -38.8125 10.4375 C-37.68948486 10.08051025 -36.56646973 9.72352051 -35.40942383 9.35571289 C-29.85482809 7.58273635 -24.31505805 5.78140614 -18.8046875 3.875 C-17.85489014 3.54830322 -16.90509277 3.22160645 -15.92651367 2.88500977 C-14.13190319 2.26419835 -12.34024212 1.63477896 -10.55200195 0.99584961 C-9.744646 0.71749268 -8.93729004 0.43913574 -8.10546875 0.15234375 C-7.40574951 -0.09523682 -6.70603027 -0.34281738 -5.98510742 -0.59790039 C-3.67747619 -1.06532981 -2.21634304 -0.72719391 0 0 Z " fill="#0D188D" transform="translate(696,317)"/>
<path d="M0 0 C6.33447473 0.39590467 11.01483553 4.95969207 15.25 9.3125 C15.8275 10.199375 16.405 11.08625 17 12 C17.556875 12.83144531 17.556875 12.83144531 18.125 13.6796875 C21.13556166 19.0527038 21.36285303 24.16564141 21.375 30.1875 C21.37661133 30.95989014 21.37822266 31.73228027 21.37988281 32.52807617 C21.29221824 37.04621102 20.69489239 40.74920988 19 45 C18.31990328 42.88414355 17.87314003 41.46981191 18.4609375 39.29296875 C19.19033268 36.1903965 19.1705071 33.24696858 19.1875 30.0625 C19.20167969 28.85722656 19.21585937 27.65195312 19.23046875 26.41015625 C19.00944874 23.13980938 18.40750326 20.93183485 17 18 C16.67 18 16.34 18 16 18 C15.79375 16.948125 15.5875 15.89625 15.375 14.8125 C13.47051937 8.2393967 7.09174606 5.30148269 1.5390625 2.015625 C1.03117187 1.68046875 0.52328125 1.3453125 0 1 C0 0.67 0 0.34 0 0 Z " fill="#08158A" transform="translate(387,718)"/>
<path d="M0 0 C1.5 1.375 1.5 1.375 3 3 C3 3.66 3 4.32 3 5 C3.99 5 4.98 5 6 5 C6 6.32 6 7.64 6 9 C6.556875 9.2475 7.11375 9.495 7.6875 9.75 C10 11 10 11 12.1875 12.875 C19.13857398 18.12692256 26.54962572 19.74290979 35.0625 20.75 C36.02349609 20.87503906 36.98449219 21.00007812 37.97460938 21.12890625 C40.31513027 21.4316602 42.65646063 21.7217628 45 22 C45 22.33 45 22.66 45 23 C31.97585634 23.70295228 20.65531852 21.85797953 10 14 C9.113125 13.401875 8.22625 12.80375 7.3125 12.1875 C4.18138445 9.22563394 1.95232688 5.83819156 0 2 C0 1.34 0 0.68 0 0 Z " fill="#0D198C" transform="translate(504,793)"/>
<path d="M0 0 C0.66 0.99 1.32 1.98 2 3 C-0.97 2.01 -3.94 1.02 -7 0 C-7 -0.99 -7 -1.98 -7 -3 C-8.65 -3 -10.3 -3 -12 -3 C-12 -3.66 -12 -4.32 -12 -5 C-12.6705542 -4.83250244 -13.3411084 -4.66500488 -14.03198242 -4.49243164 C-17.59251115 -3.90169491 -20.88071538 -3.9917388 -24.48828125 -4.12109375 C-25.19147995 -4.14470474 -25.89467865 -4.16831573 -26.6191864 -4.19264221 C-28.85052072 -4.2688093 -31.081466 -4.35303307 -33.3125 -4.4375 C-34.83136159 -4.49076782 -36.3502418 -4.54350785 -37.86914062 -4.59570312 C-41.57966209 -4.7243599 -45.28987824 -4.86024057 -49 -5 C-49 -5.33 -49 -5.66 -49 -6 C-44.32334742 -6.21890062 -39.64645583 -6.41536066 -34.96801758 -6.59204102 C-33.38020299 -6.65505081 -31.79260949 -6.72394122 -30.20532227 -6.79907227 C-18.79644208 -7.33380745 -9.48957206 -7.40649527 0 0 Z " fill="#114CC8" transform="translate(553,236)"/>
<path d="M0 0 C0.99 0.33 1.98 0.66 3 1 C5.16153279 1.11775271 7.32641567 1.17689476 9.4909668 1.20532227 C10.1448941 1.21522186 10.79882141 1.22512146 11.4725647 1.23532104 C13.6314127 1.26687783 15.79028271 1.29167032 17.94921875 1.31640625 C19.44709338 1.33698081 20.94496228 1.35797742 22.44282532 1.37937927 C26.3833857 1.43454809 30.32399803 1.48398021 34.26464844 1.53222656 C38.28650531 1.58247951 42.30828684 1.63814577 46.33007812 1.69335938 C54.21998836 1.80087746 62.10996166 1.90233648 70 2 C70 2.33 70 2.66 70 3 C46.9 3 23.8 3 0 3 C0 2.01 0 1.02 0 0 Z " fill="#0B5EDE" transform="translate(340,380)"/>
<path d="M0 0 C-0.99 0.33 -1.98 0.66 -3 1 C-4.20882096 3.00016466 -4.20882096 3.00016466 -5 5 C-5.99 5 -6.98 5 -8 5 C-7.67 6.32 -7.34 7.64 -7 9 C-7.99 8.67 -8.98 8.34 -10 8 C-10.28875 8.928125 -10.5775 9.85625 -10.875 10.8125 C-12 14 -12 14 -14 17 C-14.66 17 -15.32 17 -16 17 C-16.33 17.99 -16.66 18.98 -17 20 C-16.67182527 12.28789375 -12.76252181 7.25002566 -7.875 1.5 C-5.14135103 -0.68691918 -3.22163923 -1.61081961 0 0 Z " fill="#0957CB" transform="translate(438,235)"/>
<path d="M0 0 C6.93 0 13.86 0 21 0 C16.74850237 2.12574882 13.82797878 2.23663392 9.25 2.125 C6.8575 2.08375 4.465 2.0425 2 2 C2 10.91 2 19.82 2 29 C1.67 29 1.34 29 1 29 C0.67 19.43 0.34 9.86 0 0 Z " fill="#24309E" transform="translate(425,715)"/>
<path d="M0 0 C0.66 0.33 1.32 0.66 2 1 C-4.34327968 5.81121637 -10.84407193 10.29526737 -17.5625 14.5625 C-18.26503906 15.01608887 -18.96757813 15.46967773 -19.69140625 15.93701172 C-21.42211914 17.02251011 -23.20738742 18.0200949 -25 19 C-25.66 18.67 -26.32 18.34 -27 18 C-25.87926138 17.16094435 -24.75325453 16.32892169 -23.625 15.5 C-22.99851562 15.0359375 -22.37203125 14.571875 -21.7265625 14.09375 C-20 13 -20 13 -18 13 C-18 12.34 -18 11.68 -18 11 C-16.01802829 8.64487929 -14.01953178 7.35310181 -11.25 6.0625 C-8.44522144 4.72738401 -5.78059078 3.29863248 -3.125 1.6875 C-2.09375 1.130625 -1.0625 0.57375 0 0 Z " fill="#0B1F9A" transform="translate(536,445)"/>
<path d="M0 0 C0.33 0.66 0.66 1.32 1 2 C0.68546875 2.86496094 0.3709375 3.72992187 0.046875 4.62109375 C-1.17902511 8.57782357 -1.07626605 11.9993495 -0.75 16.0625 C-0.71003906 16.75666016 -0.67007813 17.45082031 -0.62890625 18.16601562 C-0.35038737 22.12926399 0.29153144 25.40801487 2 29 C-1.12729608 26.18543353 -2.76237497 24.02228134 -4 20 C-4.13710218 17.35392791 -4.19062972 14.82530987 -4.125 12.1875 C-4.11597656 11.49462891 -4.10695313 10.80175781 -4.09765625 10.08789062 C-4.07426157 8.39177605 -4.03839641 6.69584129 -4 5 C-3.34 4.67 -2.68 4.34 -2 4 C-0.86649466 1.98330173 -0.86649466 1.98330173 0 0 Z " fill="#0E1F9F" transform="translate(606,730)"/>
<path d="M0 0 C6.27 0 12.54 0 19 0 C19 0.33 19 0.66 19 1 C18.03578125 1.06058594 17.0715625 1.12117187 16.078125 1.18359375 C14.81484375 1.26738281 13.5515625 1.35117187 12.25 1.4375 C10.99703125 1.51871094 9.7440625 1.59992187 8.453125 1.68359375 C4.87635863 1.92253426 4.87635863 1.92253426 1 3 C1.33 12.9 1.66 22.8 2 33 C1.34 33 0.68 33 0 33 C0 22.11 0 11.22 0 0 Z " fill="#DEE3FE" transform="translate(353,781)"/>
<path d="M0 0 C0.99 1.32 1.98 2.64 3 4 C1.11214091 5.49041507 -0.78418108 6.96705783 -2.6875 8.4375 C-3.48317383 9.06881836 -3.48317383 9.06881836 -4.29492188 9.71289062 C-7.4860575 12.16008052 -9.97547923 13.58933461 -14 14 C-14.33 13.01 -14.66 12.02 -15 11 C-14.01 10.67 -13.02 10.34 -12 10 C-11.54625 9.525625 -11.0925 9.05125 -10.625 8.5625 C-8.62064885 6.63523928 -6.56472264 6.01239052 -4 5 C-3.67 4.34 -3.34 3.68 -3 3 C-2.34 3 -1.68 3 -1 3 C-0.67 2.01 -0.34 1.02 0 0 Z " fill="#0F29AF" transform="translate(548,433)"/>
<path d="M0 0 C2.27024968 -0.08097324 4.54132075 -0.13917704 6.8125 -0.1875 C8.07707031 -0.22230469 9.34164063 -0.25710938 10.64453125 -0.29296875 C14 0 14 0 17 3 C9.08 3 1.16 3 -7 3 C-7 2.67 -7 2.34 -7 2 C-4.69 2 -2.38 2 0 2 C0 1.34 0 0.68 0 0 Z " fill="#D8DFFA" transform="translate(336,649)"/>
<path d="M0 0 C2.64 0.99 5.28 1.98 8 3 C8.33 3.99 8.66 4.98 9 6 C6 7 6 7 2 6 C1.67 11.61 1.34 17.22 1 23 C0.67 23 0.34 23 0 23 C0 15.41 0 7.82 0 0 Z " fill="#0E67E7" transform="translate(327,393)"/>
<path d="M0 0 C0.99 0.33 1.98 0.66 3 1 C5.39254576 1.22560676 7.78928123 1.40848595 10.1875 1.5625 C12.09595703 1.68818359 12.09595703 1.68818359 14.04296875 1.81640625 C15.01878906 1.87699219 15.99460937 1.93757812 17 2 C17 2.33 17 2.66 17 3 C15.56720703 3.14695312 15.56720703 3.14695312 14.10546875 3.296875 C5.88897475 4.24713752 -1.33247293 5.71619423 -9 9 C-9 8.34 -9 7.68 -9 7 C-7.02 6.34 -5.04 5.68 -3 5 C-3 4.34 -3 3.68 -3 3 C-1.5 1.375 -1.5 1.375 0 0 Z " fill="#0A1C9D" transform="translate(479,584)"/>
<path d="M0 0 C-2.76543196 1.51012131 -5.53816807 3.00630148 -8.3125 4.5 C-9.49102539 5.14388672 -9.49102539 5.14388672 -10.69335938 5.80078125 C-11.45068359 6.20683594 -12.20800781 6.61289062 -12.98828125 7.03125 C-13.68477783 7.40830078 -14.38127441 7.78535156 -15.09887695 8.17382812 C-17 9 -17 9 -20 9 C-18.76601019 5.29803058 -17.10573384 4.68782836 -13.7890625 2.8671875 C-3.87583149 -1.93791574 -3.87583149 -1.93791574 0 0 Z " fill="#09219C" transform="translate(500,470)"/>
<path d="M0 0 C0.33 0.66 0.66 1.32 1 2 C3.34852528 3.17426264 4.73774065 3.11508173 7.3515625 3.09765625 C8.62773437 3.09282227 8.62773437 3.09282227 9.9296875 3.08789062 C10.81914062 3.07951172 11.70859375 3.07113281 12.625 3.0625 C13.97078125 3.05573242 13.97078125 3.05573242 15.34375 3.04882812 C17.56256648 3.03702591 19.78125018 3.02056155 22 3 C22 3.66 22 4.32 22 5 C13.75 5 5.5 5 -3 5 C-2.67 4.01 -2.34 3.02 -2 2 C-1.34 2 -0.68 2 0 2 C0 1.34 0 0.68 0 0 Z " fill="#0C37C3" transform="translate(414,517)"/>
<path d="M0 0 C0.66 0.33 1.32 0.66 2 1 C1.3125 3.375 1.3125 3.375 0 6 C-2.375 7.0625 -2.375 7.0625 -5 8 C-6.35251497 9.31387169 -7.68945377 10.64426252 -9 12 C-9.66 12 -10.32 12 -11 12 C-9.85996765 8.57990294 -8.77829802 7.71130558 -6.0625 5.4375 C-3.96656037 3.66869432 -1.94005112 1.94005112 0 0 Z " fill="#0B1F9B" transform="translate(523,654)"/>
<path d="M0 0 C6.44450441 0.26852102 10.27735286 2.65746836 15 7 C15.33 7.66 15.66 8.32 16 9 C13.03 8.01 10.06 7.02 7 6 C7 5.01 7 4.02 7 3 C5.35 3 3.7 3 2 3 C2 2.34 2 1.68 2 1 C1.34 0.67 0.68 0.34 0 0 Z " fill="#0C30AB" transform="translate(539,230)"/>
<path d="M0 0 C0.66 0.33 1.32 0.66 2 1 C1.525625 1.825 1.05125 2.65 0.5625 3.5 C-1.23569599 7.52795901 -1.6234255 10.63173579 -2 15 C-2.66 14.67 -3.32 14.34 -4 14 C-5.00976752 8.9511624 -5.48895013 5.6850826 -3 1 C-2.01 1.33 -1.02 1.66 0 2 C0 1.34 0 0.68 0 0 Z " fill="#071E9D" transform="translate(599,334)"/>
<path d="M0 0 C0.99 0.33 1.98 0.66 3 1 C2.67 2.32 2.34 3.64 2 5 C0.948125 5.0825 -0.10375 5.165 -1.1875 5.25 C-5.31626847 6.06221675 -6.84347482 7.36956235 -10 10 C-10.99 9.67 -11.98 9.34 -13 9 C-10.90421865 7.4662827 -8.79977463 5.94819163 -6.6875 4.4375 C-6.09259766 3.99986328 -5.49769531 3.56222656 -4.88476562 3.11132812 C-3.31029927 1.99424864 -1.65793081 0.98897741 0 0 Z M0 2 C1 4 1 4 1 4 Z " fill="#101B8C" transform="translate(622,465)"/>
<path d="M0 0 C1.32 0.33 2.64 0.66 4 1 C3.67 1.33 3.34 1.66 3 2 C2.76472227 4.34987262 2.58613583 6.70556039 2.4375 9.0625 C2.35371094 10.35285156 2.26992188 11.64320313 2.18359375 12.97265625 C2.12300781 13.97167969 2.06242188 14.97070312 2 16 C1.34 15.67 0.68 15.34 0 15 C0 10.05 0 5.1 0 0 Z " fill="#0D27AC" transform="translate(524,383)"/>
<path d="M0 0 C0 0.99 0 1.98 0 3 C-2.71805862 4.35902931 -4.96915383 4 -8 4 C-10.00569659 4.29714023 -12.00822259 4.62061383 -14 5 C-9.51375548 0.03308643 -6.54383065 -0.14872342 0 0 Z " fill="#0F21A0" transform="translate(715,311)"/>
<path d="M0 0 C1.5390625 1.1953125 1.5390625 1.1953125 3 3 C2.90832369 8.4089023 1.19643314 13.64122753 -2 18 C-3 15 -3 15 -2.1015625 13.171875 C-1.73804688 12.45515625 -1.37453125 11.7384375 -1 11 C-0.54724722 8.18503259 -0.54724722 8.18503259 -0.375 5.25 C-0.30023437 4.26515625 -0.22546875 3.2803125 -0.1484375 2.265625 C-0.09945312 1.51796875 -0.05046875 0.7703125 0 0 Z " fill="#12209D" transform="translate(582,781)"/>
<path d="M0 0 C0.33 0.66 0.66 1.32 1 2 C-0.85625 2.680625 -0.85625 2.680625 -2.75 3.375 C-5.04427913 4.223237 -7.10804766 5.06002648 -9.25 6.25 C-11.51333277 7.21999976 -12.72704155 6.81177087 -15 6 C-14.67 5.01 -14.34 4.02 -14 3 C-12.989375 2.87625 -11.97875 2.7525 -10.9375 2.625 C-7.12062388 2.01914665 -3.68499888 1.12806088 0 0 Z " fill="#0E36C0" transform="translate(439,511)"/>
<path d="M0 0 C0.680625 0.763125 1.36125 1.52625 2.0625 2.3125 C7.11746845 6.93725837 12.28202768 8.31449262 19 9 C19 9.33 19 9.66 19 10 C13.12765112 10.35234093 9.17626358 10.12983379 4 7 C3.21625 6.608125 2.4325 6.21625 1.625 5.8125 C1.08875 5.544375 0.5525 5.27625 0 5 C0 3.35 0 1.7 0 0 Z " fill="#071692" transform="translate(354,661)"/>
<path d="M0 0 C-2.31 0.66 -4.62 1.32 -7 2 C-7 2.66 -7 3.32 -7 4 C-9.64 4.33 -12.28 4.66 -15 5 C-15.33 4.34 -15.66 3.68 -16 3 C-14.08802961 2.29954544 -12.17019565 1.615081 -10.25 0.9375 C-9.18265625 0.55464844 -8.1153125 0.17179687 -7.015625 -0.22265625 C-4.07719958 -0.98010011 -2.77651052 -1.07151741 0 0 Z " fill="#122098" transform="translate(696,317)"/>
<path d="M0 0 C0.99 0 1.98 0 3 0 C2 2 1 4 0 6 C-0.66 6 -1.32 6 -2 6 C-2.33 8.31 -2.66 10.62 -3 13 C-4.11328125 11.26171875 -4.11328125 11.26171875 -5 9 C-4.35546875 6.89453125 -4.35546875 6.89453125 -3.1875 4.8125 C-2.80980469 4.11769531 -2.43210937 3.42289062 -2.04296875 2.70703125 C-1 1 -1 1 0 0 Z " fill="#0D6BD3" transform="translate(331,290)"/>
<path d="M0 0 C1.32 0.33 2.64 0.66 4 1 C4 1.66 4 2.32 4 3 C-4.25 3 -12.5 3 -21 3 C-21 2.67 -21 2.34 -21 2 C-14.07 2 -7.14 2 0 2 C0 1.34 0 0.68 0 0 Z " fill="#182FBA" transform="translate(374,763)"/>
<path d="M0 0 C0.33 0 0.66 0 1 0 C1 4.29 1 8.58 1 13 C0.01 13.33 -0.98 13.66 -2 14 C-2.73323796 16.01508358 -2.73323796 16.01508358 -3 18 C-4.32 17.67 -5.64 17.34 -7 17 C-6.01 17 -5.02 17 -4 17 C-3.7834375 16.071875 -3.7834375 16.071875 -3.5625 15.125 C-3 13 -3 13 -2 11 C-1.34 11 -0.68 11 0 11 C0 7.37 0 3.74 0 0 Z " fill="#0829B6" transform="translate(517,394)"/>
<path d="M0 0 C1.03159626 3.09478879 0.97482862 4.52631393 0.5625 7.6875 C0.46066406 8.49574219 0.35882813 9.30398438 0.25390625 10.13671875 C0.17011719 10.75160156 0.08632813 11.36648438 0 12 C-0.99 12 -1.98 12 -3 12 C-2.69106068 10.3743193 -2.3777305 8.74947252 -2.0625 7.125 C-1.88847656 6.22007812 -1.71445312 5.31515625 -1.53515625 4.3828125 C-1 2 -1 2 0 0 Z " fill="#1026A4" transform="translate(429,605)"/>
<path d="M0 0 C0.66 0.33 1.32 0.66 2 1 C1.27683594 1.68835938 1.27683594 1.68835938 0.5390625 2.390625 C-0.09257812 3.00421875 -0.72421875 3.6178125 -1.375 4.25 C-2.00148438 4.85328125 -2.62796875 5.4565625 -3.2734375 6.078125 C-4.97310161 7.9700588 -5.98459866 9.68201309 -7 12 C-7.66 12 -8.32 12 -9 12 C-9 12.66 -9 13.32 -9 14 C-9.66 13.67 -10.32 13.34 -11 13 C-9.92027262 11.5805831 -8.83604137 10.1645917 -7.75 8.75 C-6.84507812 7.56664062 -6.84507812 7.56664062 -5.921875 6.359375 C-4.06817005 4.08368843 -2.11101046 2.03628442 0 0 Z " fill="#071B92" transform="translate(446,580)"/>
<path d="M0 0 C0.66 0 1.32 0 2 0 C1.49477778 4.37859255 -1.17827222 6.81651224 -4 10 C-5.32 9.67 -6.64 9.34 -8 9 C-6.8553125 8.1646875 -6.8553125 8.1646875 -5.6875 7.3125 C-3.03204493 5.02757355 -1.7420893 2.9864388 0 0 Z " fill="#EAF0FD" transform="translate(657,505)"/>
<path d="M0 0 C0.66 0.33 1.32 0.66 2 1 C2 1.99 2 2.98 2 4 C-4.6 3.67 -11.2 3.34 -18 3 C-18 2.67 -18 2.34 -18 2 C-16.17662109 1.90912109 -16.17662109 1.90912109 -14.31640625 1.81640625 C-12.73175772 1.73201668 -11.14712298 1.6473679 -9.5625 1.5625 C-8.76005859 1.52318359 -7.95761719 1.48386719 -7.13085938 1.44335938 C-3.24760439 1.5945704 -3.24760439 1.5945704 0 0 Z " fill="#EDF2FD" transform="translate(379,712)"/>
<path d="M0 0 C-1.20842856 4.43090471 -2.51668565 6.98112756 -6 10 C-6.66 9.67 -7.32 9.34 -8 9 C-7.525625 8.608125 -7.05125 8.21625 -6.5625 7.8125 C-4.64734334 5.59091827 -4.52308986 3.83963065 -4 1 C-2 0 -2 0 0 0 Z " fill="#0B219A" transform="translate(405,763)"/>
<path d="M0 0 C1.4540625 0.0309375 1.4540625 0.0309375 2.9375 0.0625 C2.9375 0.7225 2.9375 1.3825 2.9375 2.0625 C-0.89974172 2.96663673 -4.43752274 3.16826898 -8.375 3.125 C-9.44363281 3.11597656 -10.51226562 3.10695313 -11.61328125 3.09765625 C-12.42152344 3.08605469 -13.22976563 3.07445312 -14.0625 3.0625 C-14.0625 2.7325 -14.0625 2.4025 -14.0625 2.0625 C-13.35222656 2.00191406 -12.64195312 1.94132813 -11.91015625 1.87890625 C-10.53150391 1.75322266 -10.53150391 1.75322266 -9.125 1.625 C-8.20847656 1.54378906 -7.29195313 1.46257813 -6.34765625 1.37890625 C-3.25443451 0.95061401 -3.40544167 0.06949881 0 0 Z " fill="#2E46C1" transform="translate(500.0625,584.9375)"/>
<path d="M0 0 C0 0.66 0 1.32 0 2 C-0.66 2 -1.32 2 -2 2 C-2 2.66 -2 3.32 -2 4 C-4.31 4.33 -6.62 4.66 -9 5 C-9 4.01 -9 3.02 -9 2 C-5.5647952 -0.29013653 -4.014669 -0.17842973 0 0 Z " fill="#0C38B9" transform="translate(372,512)"/>
<path d="M0 0 C1.31722179 0.42307123 2.62872664 0.86397486 3.9375 1.3125 C4.66839844 1.55613281 5.39929688 1.79976563 6.15234375 2.05078125 C8 3 8 3 9 6 C6 7 6 7 3 6 C3 5.01 3 4.02 3 3 C2.01 2.67 1.02 2.34 0 2 C0 1.34 0 0.68 0 0 Z " fill="#1162D2" transform="translate(327,393)"/>
<path d="M0 0 C1.5 1.375 1.5 1.375 3 3 C3 3.66 3 4.32 3 5 C3.99 5 4.98 5 6 5 C6 6.32 6 7.64 6 9 C6.99 9.33 7.98 9.66 9 10 C8.34 10.66 7.68 11.32 7 12 C6.01287122 10.75627811 5.03560095 9.50472782 4.0625 8.25 C3.51722656 7.55390625 2.97195313 6.8578125 2.41015625 6.140625 C1.02574346 4.03907872 0.43713013 2.45678201 0 0 Z " fill="#122097" transform="translate(504,793)"/>
<path d="M0 0 C0.99 0.33 1.98 0.66 3 1 C4.33599181 4.00598158 5.14345053 6.09147996 4.625 9.375 C4.41875 9.91125 4.2125 10.4475 4 11 C0.71428571 3.57142857 0.71428571 3.57142857 0 0 Z " fill="#15269C" transform="translate(403,732)"/>
<path d="M0 0 C2.31 0 4.62 0 7 0 C6.67 1.32 6.34 2.64 6 4 C4.35 4 2.7 4 1 4 C0.67 2.68 0.34 1.36 0 0 Z " fill="#0530BC" transform="translate(415,517)"/>
<path d="M0 0 C0.33 0.99 0.66 1.98 1 3 C-1.49505962 5.49505962 -2.67328888 5.35948376 -6.125 5.625 C-7.03507813 5.69976562 -7.94515625 5.77453125 -8.8828125 5.8515625 C-9.93082031 5.92503906 -9.93082031 5.92503906 -11 6 C-7.47566693 3.21640065 -4.14264098 1.67298963 0 0 Z " fill="#0F219A" transform="translate(556,502)"/>
<path d="M0 0 C-3.1254959 2.64465038 -6.08788267 3.84414715 -10 5 C-9.6875 3.0625 -9.6875 3.0625 -9 1 C-5.8035914 -0.06546953 -3.34252724 -0.07427838 0 0 Z " fill="#E6ECFB" transform="translate(585,488)"/>
<path d="M0 0 C0.66 0.33 1.32 0.66 2 1 C-1.75 4 -1.75 4 -4 4 C-4.33 4.66 -4.66 5.32 -5 6 C-7.97 5.505 -7.97 5.505 -11 5 C-7.41161963 3.13404221 -3.77010767 1.46615298 0 0 Z " fill="#DFE6FA" transform="translate(567,810)"/>
<path d="M0 0 C2.5654594 2.5654594 2.54046087 4.47686668 3 8 C2.01 8.495 2.01 8.495 1 9 C0.34 9.99 -0.32 10.98 -1 12 C-0.67 8.04 -0.34 4.08 0 0 Z " fill="#EFF7FC" transform="translate(665,597)"/>
<path d="M0 0 C0.33 0.66 0.66 1.32 1 2 C-0.6188996 3.03048037 -2.24532489 4.04914678 -3.875 5.0625 C-4.77992188 5.63097656 -5.68484375 6.19945312 -6.6171875 6.78515625 C-7.40351563 7.18605469 -8.18984375 7.58695313 -9 8 C-9.66 7.67 -10.32 7.34 -11 7 C-9.54261898 6.01941648 -8.08406325 5.04057868 -6.625 4.0625 C-5.81289063 3.51722656 -5.00078125 2.97195313 -4.1640625 2.41015625 C-2 1 -2 1 0 0 Z " fill="#E8EFFE" transform="translate(475,590)"/>
<path d="M0 0 C-0.969375 0.45375 -1.93875 0.9075 -2.9375 1.375 C-6.07079582 2.65786221 -6.07079582 2.65786221 -7 5 C-9.5625 5.625 -9.5625 5.625 -12 6 C-9.23086099 1.95279683 -5.23609869 -2.61804934 0 0 Z " fill="#EBF1FE" transform="translate(514,507)"/>
<path d="M0 0 C0.99 0.66 1.98 1.32 3 2 C2.6875 3.875 2.6875 3.875 2 6 C1.01 6.66 0.02 7.32 -1 8 C-1.66 7.34 -2.32 6.68 -3 6 C-2.34 5.34 -1.68 4.68 -1 4 C-0.3574765 1.93125966 -0.3574765 1.93125966 0 0 Z " fill="#162BAF" transform="translate(576,408)"/>
<path d="M0 0 C3.26008643 3.16952847 6.22237877 6.39937989 9 10 C7.68 10 6.36 10 5 10 C1.125 3.375 1.125 3.375 0 0 Z " fill="#081794" transform="translate(457,652)"/>
<path d="M0 0 C0.66 0.33 1.32 0.66 2 1 C-3.16923077 5.92307692 -3.16923077 5.92307692 -7.375 6.3125 C-8.674375 6.1578125 -8.674375 6.1578125 -10 6 C-7.75421292 3.75421292 -5.930208 3.14349581 -3 2 C-2.01 1.34 -1.02 0.68 0 0 Z " fill="#1034BA" transform="translate(457,574)"/>
<path d="M0 0 C2.31 0 4.62 0 7 0 C5.01388388 1.98611612 3.55856751 2.91454712 1 4 C0.01 4 -0.98 4 -2 4 C-2.33 3.34 -2.66 2.68 -3 2 C-2.01 2 -1.02 2 0 2 C0 1.34 0 0.68 0 0 Z " fill="#1137BE" transform="translate(440,492)"/>
<path d="M0 0 C0.33 0.66 0.66 1.32 1 2 C-1.39509338 4.89932357 -3.31245243 5.50168276 -7 6 C-6 3 -6 3 -2.9375 1.3125 C-1.968125 0.879375 -0.99875 0.44625 0 0 Z " fill="#0727A9" transform="translate(487,473)"/>
<path d="M0 0 C0.33 0.66 0.66 1.32 1 2 C1.66 2 2.32 2 3 2 C2.67 5.3 2.34 8.6 2 12 C1.67 12 1.34 12 1 12 C0.67 8.04 0.34 4.08 0 0 Z " fill="#0F24B9" transform="translate(708,387)"/>
<path d="M0 0 C0.66 0.66 1.32 1.32 2 2 C1.01 3.98 0.02 5.96 -1 8 C-1.99 8 -2.98 8 -4 8 C-2.87548273 5.0280615 -1.77706209 2.66559313 0 0 Z " fill="#162AAD" transform="translate(612,372)"/>
<path d="M0 0 C0 0.99 0 1.98 0 3 C-5.94 2.01 -5.94 2.01 -12 1 C-12 0.67 -12 0.34 -12 0 C-7.66726186 -0.92844389 -4.33273814 -0.92844389 0 0 Z " fill="#1530AD" transform="translate(642,280)"/>
<path d="M0 0 C0.33 0 0.66 0 1 0 C1.16808419 2.10405391 1.33441948 4.20824758 1.5 6.3125 C1.5928125 7.48425781 1.685625 8.65601563 1.78125 9.86328125 C1.92364989 11.905194 2 13.9531279 2 16 C1.34 16 0.68 16 0 16 C0 10.72 0 5.44 0 0 Z " fill="#EEF3FE" transform="translate(353,747)"/>
<path d="M0 0 C0.33 0.66 0.66 1.32 1 2 C0 5 0 5 -2.375 6.75 C-5 8 -5 8 -8 7 C-5.36 4.69 -2.72 2.38 0 0 Z " fill="#E1EBFE" transform="translate(539,672)"/>
<path d="M0 0 C0.33 0 0.66 0 1 0 C1 2.31 1 4.62 1 7 C-0.98 7.99 -0.98 7.99 -3 9 C-2.01 6.03 -1.02 3.06 0 0 Z " fill="#E6EEFA" transform="translate(670,661)"/>
<path d="M0 0 C1.1875 1.5625 1.1875 1.5625 2 4 C0.625 7.75 0.625 7.75 -1 11 C-1.33 11 -1.66 11 -2 11 C-1.85892253 9.54119891 -1.71197585 8.08296449 -1.5625 6.625 C-1.48128906 5.81289063 -1.40007812 5.00078125 -1.31640625 4.1640625 C-1 2 -1 2 0 0 Z " fill="#142BB2" transform="translate(452,609)"/>
<path d="M0 0 C0 0.66 0 1.32 0 2 C-0.66 2 -1.32 2 -2 2 C-2.33 2.66 -2.66 3.32 -3 4 C-5.31 4 -7.62 4 -10 4 C-7.18342017 0.590456 -4.32639749 0 0 0 Z " fill="#0E37C1" transform="translate(424,499)"/>
<path d="M0 0 C0 0.66 0 1.32 0 2 C-2.81769349 4.17364926 -4.2190681 5.08677021 -7.8125 4.6875 C-8.534375 4.460625 -9.25625 4.23375 -10 4 C-7.25346796 1.25346796 -3.91404908 0 0 0 Z " fill="#E2EDFD" transform="translate(456,491)"/>
<path d="M0 0 C2.125 0.9375 2.125 0.9375 4 2 C-1.2734375 5.22265625 -1.2734375 5.22265625 -3 6 C-3.66 5.67 -4.32 5.34 -5 5 C-4.01 4.67 -3.02 4.34 -2 4 C-2 3.01 -2 2.02 -2 1 C-1.34 0.67 -0.68 0.34 0 0 Z " fill="#0B209E" transform="translate(505,463)"/>
<path d="M0 0 C0.99 0.33 1.98 0.66 3 1 C-1.455 3.97 -1.455 3.97 -6 7 C-6.66 6.67 -7.32 6.34 -8 6 C-5.63055987 3.38114512 -3.16266898 1.58133449 0 0 Z " fill="#0E30BE" transform="translate(515,457)"/>
<path d="M0 0 C0.75 1.625 0.75 1.625 1 4 C-0.9375 7.25 -0.9375 7.25 -3 10 C-4 7 -4 7 -3.0625 4.8125 C-2.711875 4.214375 -2.36125 3.61625 -2 3 C-1.34 3 -0.68 3 0 3 C0 2.01 0 1.02 0 0 Z " fill="#E0E6F8" transform="translate(563,781)"/>
<path d="M0 0 C2.56687367 3.8503105 1.83288724 5.58569763 1 10 C-0.80411967 7.24075815 -1.0127245 6.11027897 -0.625 2.75 C-0.41875 1.8425 -0.2125 0.935 0 0 Z " fill="#F0EFFC" transform="translate(637,601)"/>
<path d="M0 0 C0.66 0 1.32 0 2 0 C2 1.65 2 3.3 2 5 C0.02 5.99 0.02 5.99 -2 7 C-2.33 5.68 -2.66 4.36 -3 3 C-1.68 3 -0.36 3 1 3 C0.67 2.01 0.34 1.02 0 0 Z " fill="#1323A6" transform="translate(652,506)"/>
<path d="M0 0 C-1.62339805 1.70884005 -3.29319053 3.37446717 -5 5 C-5.66 5 -6.32 5 -7 5 C-6.67 3.35 -6.34 1.7 -6 0 C-2.25 -1.125 -2.25 -1.125 0 0 Z " fill="#0B1898" transform="translate(649,429)"/>
<path d="M0 0 C0.33 0.66 0.66 1.32 1 2 C-0.65 3.98 -2.3 5.96 -4 8 C-4.66 7.34 -5.32 6.68 -6 6 C-4.02 4.02 -2.04 2.04 0 0 Z " fill="#F1F8FF" transform="translate(584,407)"/>
<path d="M0 0 C-3.4019487 2.09350689 -6.05272412 2.17942163 -10 2 C-6.19832777 -0.53444815 -4.31588991 -1.33941411 0 0 Z " fill="#D9E2F9" transform="translate(422,504)"/>
<path d="M0 0 C0.99 0.33 1.98 0.66 3 1 C2.67 2.32 2.34 3.64 2 5 C0.35 4.67 -1.3 4.34 -3 4 C-3 3.34 -3 2.68 -3 2 C-2.01 1.34 -1.02 0.68 0 0 Z M0 2 C1 4 1 4 1 4 Z " fill="#0B1DA0" transform="translate(622,465)"/>
<path d="M0 0 C1.32 0.33 2.64 0.66 4 1 C3.25 2.9375 3.25 2.9375 2 5 C-0.125 5.75 -0.125 5.75 -2 6 C-1.67 5.34 -1.34 4.68 -1 4 C-0.34 4 0.32 4 1 4 C0.67 2.68 0.34 1.36 0 0 Z " fill="#052BB8" transform="translate(583,400)"/>
<path d="M0 0 C0.66 0.33 1.32 0.66 2 1 C-1.32307692 4.93846154 -1.32307692 4.93846154 -4.75 5.25 C-5.4925 5.1675 -6.235 5.085 -7 5 C-4.88437775 2.67281553 -2.94982021 1.14186589 0 0 Z " fill="#1675DC" transform="translate(339,284)"/>
</svg>
